<?xml version="1.0" encoding="utf-8"?>
<!-- Generator: Adobe Illustrator 22.1.0, SVG Export Plug-In . SVG Version: 6.00 Build 0)  -->
<svg version="1.1" id="Layer_1" xmlns="http://www.w3.org/2000/svg" xmlns:xlink="http://www.w3.org/1999/xlink" x="0px" y="0px"
	 viewBox="0 0 500 500" style="enable-background:new 0 0 500 500;" xml:space="preserve">
<style type="text/css">
	.st0{fill:#FFFFFF;}
	.st1{fill:#2B2C2B;}
	.st2{fill:#EE2424;}
	.st3{fill:none;}
	.st4{fill:#989898;}
	.st5{fill:#454545;}
	.st6{fill:#787878;}
</style>
<circle class="st0" cx="249.5" cy="250.5" r="249.5"/>
<g>
	<path class="st0" d="M348.8,132.2H151.1c-34,0-61.7,27.7-61.7,61.7s27.7,61.7,61.7,61.7h197.7c34,0,61.7-27.7,61.7-61.7
		C410.5,159.1,382.8,132.2,348.8,132.2z M181.1,216.8c-15.8,0-29.3-12.7-29.3-29.3c0-15.8,12.7-29.3,29.3-29.3s29.3,12.7,29.3,29.3
		C209.6,203.4,197,216.8,181.1,216.8z M318.8,216.8c-15.8,0-29.3-12.7-29.3-29.3c0-15.8,12.7-29.3,29.3-29.3
		c15.8,0,29.3,12.7,29.3,29.3C348,203.4,335.4,216.8,318.8,216.8z"/>
</g>
<g>
	<circle class="st1" cx="181.1" cy="187.6" r="29.3"/>
	<circle class="st1" cx="318.8" cy="187.6" r="29.3"/>
	<g>
		<path class="st2" d="M250,31.8C128.9,31.8,31.7,129,31.7,250S129.7,468.3,250,468.3S468.2,370.3,468.2,250
			C468.2,129,371,31.8,250,31.8z M348.8,261.9H151.1c-38,0-68-30.8-68-68s30.8-68,68-68h197.7c38,0,68,30.8,68,68
			C417.6,231.1,386.8,261.9,348.8,261.9z"/>
		<path class="st1" d="M250,475.5C125.8,475.5,24.5,374.2,24.5,250S125.8,24.6,250,24.6S475.4,125.9,475.4,250
			S374.1,475.5,250,475.5z M250,38.1C132.9,38.1,38,133,38,250s94.9,212,212,212s212-94.9,212-212S367,38.1,250,38.1z M348.8,268.2
			H151.1c-41.1,0-75.1-34-75.1-75.1s34-75.1,75.1-75.1h197.7c41.1,0,75.1,34,75.1,75.1S390.7,268.2,348.8,268.2z M151.1,132.2
			c-34,0-61.7,27.7-61.7,61.7s27.7,61.7,61.7,61.7h197.7c34,0,61.7-27.7,61.7-61.7s-27.7-61.7-61.7-61.7L151.1,132.2z"/>
	</g>
</g>
<path id="SVGID_x5F_1_x5F_" class="st3" d="M476.7,250c0,124.7-101.1,225.9-225.9,225.9S25,374.8,25,250S126.1,24.2,250.9,24.2
	S476.7,125.3,476.7,250z"/>
<text><textPath  xlink:href="#SVGID_x5F_1_x5F_" startOffset="90.9993%">
</textPath>
</text>
<g>
	<path class="st4" d="M22,227.6c0.3,0,0.4,0.1,0.4,0.4l-0.2,2.6c0,0.2-0.2,0.4-0.4,0.4l-2.8,0l-0.1,1.7l2.7,0.4
		c0.3,0.1,0.4,0.2,0.4,0.5l-0.2,2.6c0,0.3-0.2,0.4-0.4,0.3l-15.9-3.4c-0.3-0.1-0.4-0.2-0.4-0.5l0.3-3.7c0-0.3,0.2-0.4,0.4-0.4
		L22,227.6z M15.8,230.9l-6.2,0l0,0.2l6.2,1L15.8,230.9z"/>
	<path class="st4" d="M7.8,212.3l16,2.2c0.3,0,0.4,0.2,0.3,0.4l-0.2,1.8c0,0.1-0.1,0.2-0.2,0.3c-0.1,0.1-0.2,0.2-0.3,0.2l-7.7,2
		l7.3,1c0.3,0,0.4,0.2,0.3,0.4l-0.3,2.5c0,0.3-0.2,0.4-0.4,0.3l-16-2.2c-0.3,0-0.4-0.2-0.3-0.4l0.3-1.8c0-0.1,0.1-0.2,0.2-0.3
		c0.1-0.1,0.2-0.2,0.3-0.2l8.5-1.8l-8.1-1.1c-0.3,0-0.4-0.2-0.3-0.4l0.3-2.5C7.4,212.4,7.5,212.3,7.8,212.3z"/>
	<path class="st4" d="M23.2,201.3c0.5,0.1,0.9,0.3,1.3,0.5c0.4,0.3,0.7,0.6,1,1c0.3,0.4,0.4,0.8,0.5,1.3c0.1,0.5,0.1,0.9,0,1.4
		l-0.2,1.1c-0.1,0.5-0.3,0.9-0.5,1.3c-0.3,0.4-0.6,0.7-1,1c-0.4,0.3-0.8,0.4-1.3,0.5c-0.5,0.1-0.9,0.1-1.4,0l-10-2
		c-0.5-0.1-0.9-0.3-1.3-0.5c-0.4-0.3-0.7-0.6-1-1c-0.3-0.4-0.4-0.8-0.5-1.3c-0.1-0.5-0.1-0.9,0-1.4l0.2-1.1c0.1-0.5,0.3-0.9,0.5-1.3
		c0.3-0.4,0.6-0.7,1-1c0.4-0.3,0.8-0.4,1.3-0.5c0.5-0.1,0.9-0.1,1.4,0L23.2,201.3z M12.7,202.6c-0.2,0-0.4,0-0.5,0.1
		c-0.2,0.1-0.3,0.2-0.3,0.4l0,0.2c0,0.2,0,0.4,0.1,0.5c0.1,0.2,0.2,0.3,0.4,0.3l9.7,1.9c0.2,0,0.4,0,0.5-0.1
		c0.2-0.1,0.3-0.2,0.3-0.4l0-0.2c0-0.2,0-0.4-0.1-0.5c-0.1-0.2-0.2-0.3-0.4-0.3L12.7,202.6z"/>
	<path class="st4" d="M13.8,184.6l15.6,4c0.3,0.1,0.3,0.2,0.3,0.5l-0.5,1.7c0,0.1-0.1,0.2-0.2,0.3c-0.1,0.1-0.2,0.1-0.3,0.1
		l-7.9,1.1l7.1,1.8c0.3,0.1,0.3,0.2,0.3,0.5l-0.6,2.4c-0.1,0.3-0.2,0.3-0.5,0.3l-15.6-4c-0.3-0.1-0.3-0.2-0.3-0.5l0.5-1.8
		c0-0.1,0.1-0.2,0.2-0.3c0.1-0.1,0.2-0.1,0.3-0.1l8.7-0.8l-7.9-2c-0.3-0.1-0.3-0.2-0.3-0.5l0.6-2.4
		C13.3,184.6,13.5,184.5,13.8,184.6z"/>
	<path class="st4" d="M17.9,170.5c0.1,0,0.2,0,0.3,0.1l8.5,6.1l5.8,1.9c0.3,0.1,0.3,0.2,0.3,0.5l-0.8,2.4c-0.1,0.3-0.2,0.3-0.5,0.3
		l-5.8-1.9l-10.5,0c-0.1,0-0.2,0-0.2-0.1c-0.1-0.1-0.1-0.2,0-0.3l0.9-2.8c0.1-0.3,0.3-0.4,0.5-0.3l5.5,0.6l0-0.1l-4.8-2.7
		c-0.2-0.1-0.3-0.3-0.2-0.6l0.9-2.8C17.7,170.6,17.8,170.5,17.9,170.5z"/>
	<path class="st4" d="M23.8,155.6l15,5.9c0.2,0.1,0.3,0.3,0.2,0.5l-1,2.5c-0.1,0.2-0.3,0.3-0.5,0.2l-7-2.7l5.6,4.2
		c0.1,0.1,0.1,0.1,0.1,0.2c0,0.1-0.1,0.1-0.2,0.1l-6.9-0.7l7,2.7c0.2,0.1,0.3,0.3,0.2,0.5l-1,2.5c-0.1,0.2-0.3,0.3-0.5,0.2l-15-5.9
		c-0.2-0.1-0.3-0.3-0.2-0.5l0.9-2.2c0-0.1,0.1-0.2,0.2-0.2c0.1,0,0.2-0.1,0.3-0.1l8.9,1.1l-7.3-5.3c-0.1-0.1-0.1-0.2-0.2-0.3
		c0-0.1-0.1-0.2,0-0.3l0.9-2.2C23.4,155.6,23.6,155.5,23.8,155.6z"/>
	<path class="st4" d="M41.5,148.6c0.4,0.2,0.8,0.5,1.1,0.8c0.3,0.4,0.5,0.7,0.7,1.2c0.2,0.4,0.2,0.9,0.2,1.3c0,0.5-0.1,0.9-0.3,1.4
		l-0.5,1c-0.2,0.4-0.5,0.8-0.8,1.1c-0.4,0.3-0.7,0.5-1.2,0.7c-0.4,0.2-0.9,0.2-1.3,0.2c-0.5,0-0.9-0.1-1.4-0.3l-9.2-4.3
		c-0.4-0.2-0.8-0.5-1.1-0.8c-0.3-0.4-0.5-0.7-0.7-1.2c-0.2-0.4-0.2-0.9-0.2-1.3c0-0.5,0.1-0.9,0.3-1.4l0.5-1
		c0.2-0.4,0.5-0.8,0.8-1.1s0.7-0.5,1.2-0.7c0.4-0.2,0.9-0.2,1.3-0.2c0.5,0,0.9,0.1,1.4,0.3L41.5,148.6z M30.9,147.3
		c-0.2-0.1-0.3-0.1-0.5,0c-0.2,0.1-0.3,0.2-0.4,0.4l-0.1,0.2c-0.1,0.2-0.1,0.3,0,0.5c0.1,0.2,0.2,0.3,0.4,0.4l9,4.2
		c0.2,0.1,0.3,0.1,0.5,0c0.2-0.1,0.3-0.2,0.4-0.4l0.1-0.2c0.1-0.2,0.1-0.3,0-0.5s-0.2-0.3-0.4-0.4L30.9,147.3z"/>
	<path class="st4" d="M35.8,131.1l11.6,6.2c0.4,0.2,0.8,0.5,1.1,0.9s0.5,0.8,0.6,1.2c0.1,0.4,0.2,0.9,0.1,1.4c0,0.5-0.2,0.9-0.4,1.4
		l-0.5,0.9c-0.2,0.4-0.5,0.8-0.9,1.1c-0.4,0.3-0.8,0.5-1.2,0.6c-0.4,0.1-0.9,0.2-1.4,0.1c-0.5,0-0.9-0.2-1.3-0.4l-11.6-6.2
		c-0.2-0.1-0.3-0.3-0.2-0.5l1.2-2.2c0.1-0.2,0.3-0.3,0.5-0.2l11.5,6.2c0.2,0.1,0.3,0.1,0.5,0.1s0.3-0.2,0.4-0.3l0.1-0.2
		c0.1-0.2,0.1-0.3,0.1-0.5c-0.1-0.2-0.2-0.3-0.3-0.4L34.2,134c-0.2-0.1-0.3-0.3-0.2-0.5l1.2-2.2C35.3,131.1,35.5,131,35.8,131.1z"/>
	<path class="st4" d="M41.2,121.4c0.4-0.3,0.8-0.5,1.2-0.6c0.4-0.1,0.9-0.1,1.4-0.1c0.5,0.1,0.9,0.2,1.3,0.5l0.9,0.6
		c0.2,0.1,0.3,0.3,0.2,0.6l-0.8,2.5c-0.1,0.2-0.2,0.3-0.4,0.2l-1.6-1c-0.2-0.1-0.3-0.1-0.5-0.1c-0.2,0-0.3,0.1-0.4,0.3l-0.1,0.2
		c-0.1,0.2-0.1,0.3-0.1,0.5s0.1,0.3,0.3,0.4l1.5,0.9c0.2,0.1,0.4,0.2,0.5,0.2c0.2,0,0.3,0,0.5,0l4.3-1.7c0.4-0.1,0.7-0.1,1-0.1
		c0.3,0.1,0.6,0.2,0.9,0.3l2.5,1.5c0.4,0.3,0.8,0.6,1,1c0.3,0.4,0.5,0.8,0.6,1.2c0.1,0.4,0.1,0.9,0.1,1.4c-0.1,0.5-0.2,0.9-0.5,1.3
		l-0.6,0.9c-0.3,0.4-0.6,0.8-1,1s-0.8,0.5-1.2,0.6c-0.4,0.1-0.9,0.1-1.4,0.1c-0.5-0.1-0.9-0.2-1.3-0.5l-1.3-0.8
		c-0.2-0.1-0.3-0.3-0.2-0.6l0.8-2.5c0.1-0.2,0.2-0.3,0.4-0.2l2,1.2c0.2,0.1,0.3,0.1,0.5,0.1s0.3-0.1,0.4-0.3l0.1-0.2
		c0.1-0.2,0.1-0.3,0.1-0.5c0-0.2-0.1-0.3-0.3-0.4l-1.5-0.9c-0.2-0.1-0.4-0.2-0.6-0.2c-0.2,0-0.4,0-0.6,0l-4.3,1.7
		c-0.4,0.1-0.7,0.1-1,0.1c-0.3,0-0.6-0.2-1-0.4l-2.2-1.3c-0.4-0.3-0.8-0.6-1-1c-0.3-0.4-0.5-0.8-0.6-1.2c-0.1-0.4-0.1-0.9-0.1-1.4
		c0.1-0.5,0.2-0.9,0.5-1.3l0.6-0.9C40.5,122,40.8,121.7,41.2,121.4z"/>
	<path class="st4" d="M63.3,111.1c-0.3-0.6-0.8-1.3-1.4-1.7l-0.2-0.2l1.1-1.5l0.1,0.1c0.6,0.4,1.9,1.7,2.4,3.3l3.3,0l-1.4,2l-1.5,0
		c0.1,1.2,0,2.5-0.9,3.8c-1.9,2.7-4.4,2-5.7,1.1c-1.3-0.9-1.8-2.3-1.8-3.8l0-1.1l-1,0c-0.9-0.1-1.8-0.2-2.4-0.6
		c-1.6-1.2-1.6-3-0.5-4.5c0.6-0.9,2.3-2.2,4.2-0.8c1.1,0.8,1.4,1.9,1.4,3.2l0,0.9L63.3,111.1z M57.3,110.3c-0.1-0.7-0.2-1.5-0.9-1.9
		c-0.7-0.5-1.4-0.4-1.9,0.3c-0.3,0.5-0.5,1.3,0.2,1.8c0.6,0.4,1.4,0.5,2.1,0.5l0.5,0L57.3,110.3z M59,113.5c0,1.1,0.4,1.9,1.3,2.6
		c1,0.8,2.5,0.5,3.3-0.6c0.6-0.8,0.6-1.7,0.4-2.4l-5-0.1L59,113.5z"/>
	<path class="st4" d="M64.4,89.9c0.4-0.2,0.9-0.3,1.3-0.4c0.5,0,0.9,0,1.4,0.2c0.5,0.1,0.9,0.4,1.2,0.7l0.8,0.7
		c0.2,0.2,0.2,0.4,0.1,0.6L68.1,94c-0.1,0.2-0.3,0.3-0.5,0.1l-1.4-1.2c-0.1-0.1-0.3-0.2-0.5-0.2c-0.2,0-0.3,0.1-0.5,0.2l-0.1,0.2
		c-0.1,0.1-0.2,0.3-0.2,0.5c0,0.2,0.1,0.3,0.2,0.5l1.3,1.1c0.2,0.1,0.3,0.2,0.5,0.3c0.2,0.1,0.3,0.1,0.5,0.1l4.5-1
		c0.4-0.1,0.7,0,1,0.1s0.5,0.3,0.8,0.5L76,97c0.4,0.3,0.7,0.7,0.9,1.1c0.2,0.4,0.3,0.9,0.4,1.3c0,0.5,0,0.9-0.2,1.4
		c-0.1,0.5-0.4,0.9-0.7,1.2l-0.7,0.8c-0.3,0.4-0.7,0.7-1.1,0.9c-0.4,0.2-0.9,0.3-1.3,0.4c-0.5,0-0.9,0-1.4-0.2
		c-0.5-0.1-0.9-0.4-1.2-0.7l-1.2-1c-0.2-0.2-0.2-0.4-0.1-0.6l1.1-2.4c0.1-0.2,0.3-0.3,0.5-0.1l1.8,1.5c0.1,0.1,0.3,0.2,0.5,0.2
		c0.2,0,0.3-0.1,0.5-0.2l0.1-0.2c0.1-0.1,0.2-0.3,0.2-0.5c0-0.2-0.1-0.3-0.2-0.5l-1.3-1.1c-0.2-0.1-0.4-0.3-0.6-0.3
		c-0.2-0.1-0.4-0.1-0.6-0.1l-4.5,1c-0.4,0-0.7,0-1-0.1s-0.6-0.3-0.9-0.5l-1.9-1.6c-0.4-0.3-0.7-0.7-0.9-1.1
		c-0.2-0.4-0.3-0.9-0.4-1.3c0-0.4,0-0.9,0.2-1.4c0.1-0.5,0.4-0.9,0.7-1.2l0.7-0.8C63.6,90.4,63.9,90.1,64.4,89.9z"/>
	<path class="st4" d="M83.3,89.7l1.8,1.7c0.2,0.2,0.2,0.4,0,0.6L81,96.5c-0.2,0.2-0.4,0.2-0.6,0l-11.8-11c-0.2-0.2-0.2-0.4,0-0.6
		l4.2-4.5c0.2-0.2,0.4-0.2,0.6,0l1.8,1.7c0.2,0.2,0.2,0.4,0,0.6L73,85l2.3,2.2l1.9-2c0.2-0.2,0.4-0.2,0.6,0l1.8,1.7
		c0.2,0.2,0.2,0.4,0,0.6l-1.9,2l2.8,2.6l2.2-2.3C82.9,89.6,83.1,89.6,83.3,89.7z"/>
	<path class="st4" d="M80.2,73.2c0.4-0.2,0.9-0.2,1.3-0.2c0.5,0,0.9,0.1,1.3,0.3c0.4,0.2,0.8,0.4,1.2,0.8l1.2,1.2
		c0.2,0.2,0.2,0.4,0.1,0.6l-1.6,2.1c-0.1,0.2-0.3,0.2-0.5,0.1l-1.5-1.6c-0.1-0.1-0.3-0.2-0.5-0.2c-0.2,0-0.3,0.1-0.5,0.2l-0.2,0.2
		c-0.1,0.1-0.2,0.3-0.2,0.5c0,0.2,0.1,0.3,0.2,0.5l6.9,7.1c0.1,0.1,0.3,0.2,0.5,0.2c0.2,0,0.3-0.1,0.5-0.2l0.2-0.2
		c0.1-0.1,0.2-0.3,0.2-0.5c0-0.2-0.1-0.3-0.2-0.5l-2.4-2.4c-0.2-0.2-0.2-0.3,0.1-0.5l2.1-1.5c0.2-0.1,0.4-0.1,0.6,0.1l2.1,2.1
		c0.3,0.4,0.6,0.7,0.8,1.2c0.2,0.4,0.2,0.9,0.2,1.3c0,0.5-0.1,0.9-0.3,1.3c-0.2,0.4-0.4,0.8-0.8,1.2l-0.8,0.7
		c-0.4,0.3-0.7,0.6-1.2,0.8c-0.4,0.2-0.9,0.2-1.3,0.2c-0.5,0-0.9-0.1-1.3-0.3c-0.4-0.2-0.8-0.4-1.2-0.8l-7.1-7.3
		c-0.3-0.4-0.6-0.7-0.8-1.2c-0.2-0.4-0.2-0.9-0.2-1.3c0-0.5,0.1-0.9,0.3-1.3c0.2-0.4,0.4-0.8,0.8-1.2l0.8-0.7
		C79.4,73.6,79.8,73.3,80.2,73.2z"/>
	<path class="st4" d="M90.9,63.9l8.7,9.9c0.3,0.4,0.6,0.8,0.7,1.2c0.1,0.4,0.2,0.9,0.2,1.3c0,0.5-0.1,0.9-0.3,1.3
		c-0.2,0.4-0.5,0.8-0.8,1.1l-0.8,0.7c-0.4,0.3-0.8,0.6-1.2,0.7c-0.4,0.1-0.9,0.2-1.3,0.2c-0.5,0-0.9-0.1-1.3-0.3
		c-0.4-0.2-0.8-0.5-1.1-0.8l-8.7-9.9c-0.2-0.2-0.2-0.4,0-0.6l1.9-1.7c0.2-0.2,0.4-0.2,0.6,0l8.6,9.8c0.1,0.1,0.3,0.2,0.5,0.2
		s0.3,0,0.5-0.2l0.2-0.1c0.1-0.1,0.2-0.3,0.2-0.5c0-0.2,0-0.3-0.2-0.5l-8.6-9.8c-0.2-0.2-0.2-0.4,0-0.6l1.9-1.7
		C90.5,63.7,90.7,63.7,90.9,63.9z"/>
	<path class="st4" d="M106.7,71.8c0.2,0.2,0.1,0.4-0.1,0.6l-2,1.6c-0.2,0.2-0.4,0.1-0.5-0.1l-10-12.6c-0.2-0.2-0.1-0.4,0.1-0.6
		l3.3-2.6c0.4-0.3,0.8-0.5,1.3-0.6c0.5-0.1,0.9-0.2,1.4-0.1c0.4,0.1,0.9,0.2,1.3,0.4c0.4,0.2,0.8,0.5,1.1,0.9l2.2,2.7
		c0.4,0.5,0.7,1.2,0.7,1.9c0,0.7-0.1,1.3-0.4,1.9l6,3.3c0.2,0.2,0.2,0.3,0,0.5l-2,1.6c-0.1,0.1-0.2,0.1-0.3,0.1
		c-0.1,0-0.2,0-0.3-0.1l-4.9-2.8L106.7,71.8z M101.1,64.8l0.7-0.6c0.1-0.1,0.2-0.3,0.3-0.5c0-0.2,0-0.4-0.1-0.5l-2-2.5
		c-0.1-0.1-0.3-0.2-0.5-0.3c-0.2,0-0.4,0-0.5,0.1l-0.7,0.6L101.1,64.8z"/>
	<path class="st4" d="M117.5,60.6l1.5,2c0.2,0.2,0.1,0.4-0.1,0.6l-5,3.6c-0.2,0.2-0.4,0.1-0.6-0.1l-9.4-13.1
		c-0.2-0.2-0.1-0.4,0.1-0.6l5-3.6c0.2-0.2,0.4-0.1,0.6,0.1l1.5,2c0.2,0.2,0.1,0.4-0.1,0.6l-2.6,1.9l1.9,2.6l2.3-1.6
		c0.2-0.2,0.4-0.1,0.6,0.1l1.5,2c0.2,0.2,0.1,0.4-0.1,0.6l-2.3,1.6l2.2,3.1l2.6-1.9C117.1,60.3,117.3,60.4,117.5,60.6z"/>
	<path class="st5" d="M130.6,36.2l5.7,15.4c0.1,0.2,0,0.4-0.2,0.6l-2.1,1.3c-0.2,0.1-0.4,0.1-0.6-0.1l-3.9-4.5l0,0l2.2,5.6
		c0.1,0.2,0,0.4-0.2,0.6l-2.1,1.3c-0.2,0.1-0.4,0.1-0.6-0.1l-10.9-12.3c-0.2-0.2-0.1-0.4,0.1-0.5l2.6-1.6c0.2-0.1,0.4-0.1,0.6,0.1
		l5.7,7.7l0.1-0.1l-4-8.7c-0.1-0.2,0-0.4,0.2-0.6l1.8-1.1c0.2-0.1,0.4-0.1,0.6,0.1l5.8,7.6l0.1-0.1l-4-8.7c-0.1-0.2,0-0.4,0.2-0.6
		l2.6-1.6C130.4,35.9,130.5,36,130.6,36.2z"/>
	<path class="st5" d="M147.6,27.6l4.4,15.8c0.1,0.3,0,0.4-0.2,0.6l-2.2,1.1c-0.2,0.1-0.4,0.1-0.6-0.2l-3.5-4.8l0,0l1.7,5.7
		c0.1,0.3,0,0.4-0.2,0.6l-2.2,1.1c-0.2,0.1-0.4,0.1-0.6-0.2l-9.9-13.1c-0.2-0.2-0.1-0.4,0.1-0.5l2.7-1.4c0.2-0.1,0.4-0.1,0.6,0.2
		l5.1,8.1l0.1-0.1l-3.3-9c-0.1-0.3,0-0.4,0.2-0.5l1.8-0.9c0.2-0.1,0.4-0.1,0.6,0.2l5.2,8.1l0.1,0l-3.4-9c-0.1-0.3,0-0.4,0.2-0.5
		l2.7-1.4C147.4,27.3,147.5,27.3,147.6,27.6z"/>
	<path class="st5" d="M165.2,20.3l3.2,16.1c0.1,0.3,0,0.4-0.3,0.5l-2.3,0.9c-0.2,0.1-0.4,0-0.6-0.2l-3.1-5.1l0,0l1.3,5.8
		c0.1,0.3,0,0.4-0.3,0.5l-2.3,0.9c-0.2,0.1-0.4,0-0.6-0.2l-8.8-13.8c-0.1-0.2-0.1-0.4,0.2-0.5l2.8-1.1c0.2-0.1,0.4,0,0.5,0.2
		l4.5,8.5l0.1,0l-2.6-9.2c-0.1-0.3,0-0.4,0.2-0.5l1.9-0.8c0.2-0.1,0.4,0,0.5,0.2l4.6,8.4l0.1,0l-2.6-9.2c-0.1-0.3,0-0.4,0.2-0.5
		l2.8-1.1C165,20,165.1,20.1,165.2,20.3z"/>
	<path class="st5" d="M172.9,33.5c-0.2-0.5-0.1-0.9,0.1-1.4c0.2-0.5,0.6-0.8,1-0.9c0.5-0.2,0.9-0.1,1.4,0.1c0.5,0.2,0.8,0.6,0.9,1
		c0.2,0.5,0.1,0.9-0.1,1.4c-0.2,0.5-0.6,0.8-1,0.9c-0.5,0.2-0.9,0.1-1.4-0.1S173.1,33.9,172.9,33.5z"/>
	<path class="st6" d="M185.7,22.7c0.3,0.2,0.6,0.4,0.8,0.7s0.4,0.7,0.5,1.1l0.7,2.2c0.1,0.5,0.2,0.9,0.1,1.4
		c-0.1,0.5-0.2,0.9-0.4,1.3c-0.2,0.4-0.5,0.7-0.9,1.1c-0.4,0.3-0.8,0.5-1.2,0.7l-4,1.2c-0.1,0-0.2,0-0.3,0.1s-0.2-0.1-0.2-0.3
		l-4.6-15.4c-0.1-0.3,0-0.4,0.3-0.5l4.1-1.2c0.5-0.1,0.9-0.2,1.4-0.1c0.5,0.1,0.9,0.2,1.3,0.4c0.4,0.2,0.7,0.5,1.1,0.9
		c0.3,0.4,0.5,0.8,0.7,1.2l0.5,1.8c0.2,0.8,0.2,1.6-0.1,2.3c-0.2,0.4-0.4,0.7-0.8,1C185,22.4,185.4,22.5,185.7,22.7z M181.8,18.4
		c-0.1-0.2-0.2-0.3-0.3-0.4c-0.2-0.1-0.3-0.1-0.5-0.1l-0.9,0.3l1.1,3.7l0.9-0.3c0.2-0.1,0.3-0.2,0.4-0.3c0.1-0.2,0.1-0.3,0.1-0.5
		L181.8,18.4z M183.8,25c-0.1-0.2-0.2-0.3-0.3-0.4c-0.2-0.1-0.3-0.1-0.5-0.1l-0.9,0.3l1.1,3.8l0.9-0.3c0.2-0.1,0.3-0.2,0.4-0.3
		c0.1-0.2,0.1-0.3,0.1-0.5L183.8,25z"/>
	<path class="st6" d="M199.1,24.6l0.6,2.4c0.1,0.3,0,0.4-0.3,0.5l-5.9,1.4c-0.3,0.1-0.4,0-0.5-0.3l-3.8-15.7c-0.1-0.3,0-0.4,0.3-0.5
		l5.9-1.4c0.3-0.1,0.4,0,0.5,0.3l0.6,2.4c0.1,0.3,0,0.4-0.3,0.5l-3.1,0.7l0.7,3.1l2.7-0.7c0.3-0.1,0.4,0,0.5,0.3l0.6,2.4
		c0.1,0.3,0,0.4-0.3,0.5l-2.7,0.7l0.9,3.7l3.1-0.7C198.9,24.2,199.1,24.3,199.1,24.6z"/>
	<path class="st6" d="M208.8,8.8l0.5,2.5c0,0.3-0.1,0.4-0.3,0.5l-2,0.4l2.4,13c0,0.3-0.1,0.4-0.3,0.5l-2.5,0.5c-0.1,0-0.2,0-0.3-0.1
		c-0.1-0.1-0.2-0.1-0.2-0.3l-2.4-13l-1.9,0.4c-0.3,0-0.4-0.1-0.5-0.3l-0.5-2.5c0-0.3,0.1-0.4,0.3-0.5l7.1-1.3
		C208.6,8.4,208.8,8.5,208.8,8.8z"/>
	<path class="st5" d="M223.1,20.5l0.3,2.5c0,0.3-0.1,0.4-0.3,0.4l-3.8,0.5l-0.1,0l0,0l-2.5,0.3c-0.3,0-0.4-0.1-0.4-0.3l-2.1-16
		c0-0.3,0.1-0.4,0.3-0.4l2.5-0.3c0.3,0,0.4,0.1,0.4,0.3l1.7,13.1l3.5-0.5C222.9,20.1,223,20.2,223.1,20.5z"/>
	<path class="st5" d="M231.1,22.3c0,0.3-0.1,0.4-0.4,0.4l-2.5,0.2c-0.3,0-0.4-0.1-0.4-0.4l-1.4-16.1c0-0.3,0.1-0.4,0.4-0.4l2.5-0.2
		c0.3,0,0.4,0.1,0.4,0.4L231.1,22.3z"/>
	<path class="st5" d="M244.8,5.1c0,0.1,0,0.2,0,0.3l-3.5,7.3l4.1,8.8c0,0.1,0,0.2,0,0.3c-0.1,0.1-0.1,0.1-0.2,0.1l-2.8,0.1
		c-0.1,0-0.2,0-0.3-0.1c-0.1-0.1-0.2-0.1-0.2-0.2l-2.2-4.6l-0.4,0.9l0.2,3.7c0,0.3-0.1,0.4-0.4,0.4l-2.5,0.1c-0.3,0-0.4-0.1-0.4-0.4
		l-0.7-16.1c0-0.3,0.1-0.4,0.4-0.4l2.5-0.1c0.3,0,0.4,0.1,0.4,0.4l0.2,4.9l2.4-5.1c0.1-0.2,0.3-0.3,0.5-0.4l2.8-0.1
		C244.7,5,244.8,5,244.8,5.1z"/>
	<path class="st5" d="M256.7,19.1l0,2.5c0,0.3-0.1,0.4-0.4,0.4l-6.1-0.1c-0.3,0-0.4-0.1-0.4-0.4L250,5.4c0-0.3,0.1-0.4,0.4-0.4
		l6.1,0.1c0.3,0,0.4,0.1,0.4,0.4l0,2.5c0,0.3-0.1,0.4-0.4,0.4l-3.2-0.1l-0.1,3.2l2.8,0c0.3,0,0.4,0.1,0.4,0.4l0,2.5
		c0,0.3-0.1,0.4-0.4,0.4l-2.8,0l-0.1,3.8l3.2,0.1C256.6,18.7,256.7,18.8,256.7,19.1z"/>
	<path class="st6" d="M269.7,22.3c0,0.3-0.1,0.4-0.4,0.4l-2.6-0.2c-0.2,0-0.4-0.2-0.4-0.4l0-2.8l-1.7-0.1l-0.4,2.7
		c-0.1,0.3-0.2,0.4-0.4,0.4l-2.6-0.2c-0.3,0-0.4-0.2-0.3-0.4L264,5.8c0.1-0.3,0.2-0.4,0.5-0.4l3.7,0.2c0.3,0,0.4,0.2,0.4,0.4
		L269.7,22.3z M266.3,16.2l-0.1-6.2l-0.2,0l-0.9,6.2L266.3,16.2z"/>
	<path class="st5" d="M284.8,7.8l-2,16c0,0.3-0.2,0.4-0.4,0.3l-1.8-0.2c-0.1,0-0.2-0.1-0.3-0.2c-0.1-0.1-0.2-0.2-0.2-0.3l-2.1-7.7
		l-0.9,7.3c0,0.3-0.2,0.4-0.4,0.3l-2.5-0.3c-0.3,0-0.4-0.2-0.3-0.4l2-16c0-0.3,0.2-0.4,0.4-0.3l1.8,0.2c0.1,0,0.2,0.1,0.3,0.2
		c0.1,0.1,0.2,0.2,0.2,0.3l1.9,8.5l1-8.1c0-0.3,0.2-0.4,0.4-0.3l2.5,0.3C284.7,7.4,284.9,7.6,284.8,7.8z"/>
	<path class="st5" d="M291,25.2c0,0.3-0.2,0.4-0.5,0.3l-2.5-0.4c-0.3,0-0.4-0.2-0.3-0.5l2.8-15.9c0-0.3,0.2-0.4,0.5-0.3l2.5,0.4
		c0.3,0,0.4,0.2,0.3,0.5L291,25.2z"/>
	<path class="st5" d="M308.2,12.3l-3.5,15.7c-0.1,0.3-0.2,0.4-0.5,0.3l-1.8-0.4c-0.1,0-0.2-0.1-0.3-0.2c-0.1-0.1-0.1-0.2-0.2-0.3
		l-1.3-7.8l-1.6,7.1c-0.1,0.3-0.2,0.4-0.5,0.3l-2.4-0.5c-0.3-0.1-0.4-0.2-0.3-0.5l3.5-15.7c0.1-0.3,0.2-0.4,0.5-0.3l1.8,0.4
		c0.1,0,0.2,0.1,0.3,0.2s0.1,0.2,0.2,0.3l1.1,8.6l1.8-8c0.1-0.3,0.2-0.4,0.5-0.3l2.4,0.5C308.2,11.9,308.3,12.1,308.2,12.3z"/>
	<path class="st5" d="M321,15.4c0.3,0.1,0.3,0.2,0.3,0.5l-3.6,12.6c-0.1,0.5-0.4,0.9-0.7,1.3c-0.3,0.4-0.6,0.7-1,0.9
		c-0.4,0.2-0.8,0.4-1.3,0.4c-0.5,0.1-0.9,0-1.4-0.1l-1-0.3c-0.5-0.1-0.9-0.4-1.3-0.7c-0.4-0.3-0.7-0.6-0.9-1
		c-0.2-0.4-0.4-0.8-0.4-1.3c-0.1-0.5,0-0.9,0.1-1.4l0.8-2.9c0.1-0.3,0.2-0.4,0.5-0.4l2.7,0.1c0.3,0,0.3,0.1,0.3,0.4l-1,3.6
		c-0.1,0.2,0,0.4,0.1,0.5s0.2,0.3,0.4,0.3l0.2,0.1c0.2,0.1,0.4,0,0.5-0.1c0.2-0.1,0.3-0.2,0.3-0.4l3.6-12.5c0.1-0.3,0.2-0.3,0.5-0.3
		L321,15.4z"/>
	<path class="st5" d="M329.1,35.5c-0.1,0.3-0.2,0.3-0.4,0.3l-2.4-0.8c-0.2-0.1-0.3-0.3-0.3-0.5l0.7-2.7l-1.7-0.6l-1.1,2.5
		c-0.1,0.2-0.3,0.3-0.5,0.2l-2.4-0.8c-0.2-0.1-0.3-0.2-0.2-0.5l7.3-14.5c0.1-0.2,0.3-0.3,0.6-0.2l3.5,1.2c0.2,0.1,0.3,0.3,0.3,0.5
		L329.1,35.5z M327.4,28.7l1.5-6.1l-0.2-0.1l-2.5,5.7L327.4,28.7z"/>
	<path class="st5" d="M332.9,35.7c0.2-0.5,0.5-0.8,1-1c0.5-0.2,0.9-0.2,1.4,0c0.5,0.2,0.8,0.5,1,1c0.2,0.5,0.2,0.9,0,1.4
		c-0.2,0.5-0.5,0.8-1,1s-0.9,0.2-1.4,0c-0.5-0.2-0.8-0.5-1-1C332.7,36.6,332.7,36.2,332.9,35.7z"/>
	<path class="st5" d="M351.7,27.1c0.3,0.3,0.6,0.7,0.7,1.2c0.2,0.4,0.2,0.9,0.2,1.3c0,0.5-0.1,0.9-0.3,1.4l-0.7,1.5
		c-0.1,0.2-0.3,0.3-0.5,0.3l-2.5-0.7c-0.3,0-0.3-0.2-0.2-0.4l0.9-2c0.1-0.2,0.1-0.3,0-0.5c-0.1-0.2-0.2-0.3-0.4-0.4l-0.2-0.1
		c-0.2-0.1-0.3-0.1-0.5,0c-0.2,0.1-0.3,0.2-0.4,0.4l-4,9.1c-0.1,0.2-0.1,0.3,0,0.5c0.1,0.2,0.2,0.3,0.4,0.4l0.2,0.1
		c0.2,0.1,0.3,0.1,0.5,0s0.3-0.2,0.4-0.4l1.4-3.1c0.1-0.2,0.3-0.3,0.5-0.1l2.2,1.4c0.2,0.2,0.2,0.4,0.1,0.6l-1.2,2.7
		c-0.2,0.4-0.5,0.8-0.8,1.1s-0.7,0.6-1.2,0.7c-0.4,0.2-0.9,0.2-1.3,0.2c-0.5,0-0.9-0.1-1.4-0.3l-1-0.4c-0.4-0.2-0.8-0.5-1.1-0.8
		c-0.3-0.3-0.6-0.7-0.7-1.2c-0.2-0.4-0.2-0.9-0.2-1.3c0-0.5,0.1-0.9,0.3-1.4l4.2-9.3c0.2-0.4,0.5-0.8,0.8-1.1
		c0.3-0.3,0.7-0.6,1.2-0.7c0.4-0.2,0.9-0.2,1.3-0.2c0.5,0,0.9,0.1,1.4,0.3l1,0.4C351,26.5,351.4,26.8,351.7,27.1z"/>
	<path class="st5" d="M359.4,46c-0.2,0.4-0.5,0.8-0.9,1.1c-0.4,0.3-0.8,0.5-1.2,0.7c-0.4,0.1-0.9,0.2-1.4,0.2
		c-0.5,0-0.9-0.2-1.4-0.4l-1-0.5c-0.4-0.2-0.8-0.5-1.1-0.9c-0.3-0.4-0.5-0.8-0.7-1.2s-0.2-0.9-0.2-1.4c0-0.5,0.2-0.9,0.4-1.4
		l4.7-9.1c0.2-0.4,0.5-0.8,0.9-1.1c0.4-0.3,0.8-0.5,1.2-0.7c0.4-0.1,0.9-0.2,1.3-0.2c0.5,0,0.9,0.2,1.4,0.4l1,0.5
		c0.4,0.2,0.8,0.5,1.1,0.9c0.3,0.4,0.5,0.8,0.7,1.2c0.1,0.4,0.2,0.9,0.2,1.4c0,0.5-0.2,0.9-0.4,1.4L359.4,46z M361.1,35.5
		c0.1-0.2,0.1-0.3,0-0.5c-0.1-0.2-0.2-0.3-0.3-0.4l-0.2-0.1c-0.2-0.1-0.3-0.1-0.5,0c-0.2,0.1-0.3,0.2-0.4,0.3l-4.5,8.8
		c-0.1,0.2-0.1,0.3,0,0.5c0.1,0.2,0.2,0.3,0.3,0.4l0.2,0.1c0.2,0.1,0.3,0.1,0.5,0c0.2-0.1,0.3-0.2,0.4-0.3L361.1,35.5z"/>
	<path class="st5" d="M379.8,42.6l-8.2,13.8c-0.1,0.2-0.3,0.3-0.5,0.1l-2.3-1.4c-0.2-0.1-0.3-0.3-0.1-0.5l3.8-6.4l-5,4.8
		c-0.1,0.1-0.1,0.1-0.2,0c0,0-0.1-0.1,0-0.2l1.8-6.7l-3.8,6.4c-0.1,0.2-0.3,0.3-0.5,0.1l-2.3-1.4c-0.2-0.1-0.3-0.3-0.1-0.5l8.2-13.8
		c0.1-0.2,0.3-0.3,0.5-0.1L373,38c0.1,0.1,0.2,0.1,0.2,0.3c0,0.1,0,0.2,0,0.3l-2.5,8.6l6.4-6.3c0.1-0.1,0.2-0.1,0.3-0.1
		c0.1,0,0.2,0,0.3,0l2.1,1.2C379.9,42.2,380,42.3,379.8,42.6z"/>
	<path class="st4" d="M401.6,57.9l-12,11.1c-0.2,0.2-0.4,0.2-0.6,0l-2-1.5c-0.2-0.2-0.3-0.4-0.1-0.6l2.7-5.3l0,0l-4.3,4.1
		c-0.2,0.2-0.4,0.2-0.6,0l-2-1.5c-0.2-0.2-0.3-0.4-0.1-0.6l7.2-14.8c0.1-0.2,0.3-0.3,0.5-0.1l2.4,1.8c0.2,0.1,0.2,0.3,0.1,0.6
		l-4.9,8.2l0.1,0.1l6.5-7c0.2-0.2,0.4-0.2,0.6-0.1l1.7,1.2c0.2,0.1,0.2,0.3,0.1,0.6l-4.8,8.3l0.1,0.1l6.5-7.1
		c0.2-0.2,0.4-0.2,0.6-0.1l2.4,1.8C401.8,57.5,401.8,57.7,401.6,57.9z"/>
	<path class="st4" d="M403.3,76.5c-0.3,0.4-0.7,0.7-1.1,0.9c-0.4,0.2-0.9,0.3-1.3,0.4c-0.5,0-0.9,0-1.4-0.2
		c-0.5-0.1-0.9-0.4-1.2-0.7l-0.8-0.7c-0.4-0.3-0.7-0.7-0.9-1.1c-0.2-0.4-0.3-0.9-0.4-1.3c0-0.5,0-0.9,0.2-1.4
		c0.1-0.5,0.4-0.9,0.7-1.2l6.6-7.8c0.3-0.4,0.7-0.7,1.1-0.9c0.4-0.2,0.9-0.3,1.3-0.4c0.5,0,0.9,0,1.4,0.2c0.5,0.1,0.9,0.4,1.2,0.7
		l0.8,0.7c0.4,0.3,0.7,0.7,0.9,1.1c0.2,0.4,0.3,0.9,0.4,1.3c0,0.5,0,0.9-0.2,1.4c-0.1,0.5-0.4,0.9-0.7,1.2L403.3,76.5z M407.3,66.7
		c0.1-0.1,0.2-0.3,0.2-0.5c0-0.2-0.1-0.3-0.2-0.5l-0.2-0.1c-0.1-0.1-0.3-0.2-0.5-0.2c-0.2,0-0.3,0.1-0.5,0.2l-6.4,7.6
		c-0.1,0.1-0.2,0.3-0.2,0.5c0,0.2,0.1,0.3,0.2,0.5l0.2,0.1c0.1,0.1,0.3,0.2,0.5,0.2c0.2,0,0.3-0.1,0.5-0.2L407.3,66.7z"/>
	<path class="st4" d="M407.7,84.6c-0.2,0.2-0.4,0.2-0.6,0l-1.8-1.7c-0.2-0.2-0.2-0.3,0-0.5l11.1-11.6c0.2-0.2,0.4-0.2,0.6,0l3.1,2.9
		c0.4,0.3,0.6,0.7,0.8,1.2c0.2,0.4,0.3,0.9,0.3,1.3s-0.1,0.9-0.2,1.3c-0.2,0.4-0.4,0.8-0.8,1.2l-2.4,2.5c-0.5,0.5-1.1,0.8-1.7,0.9
		s-1.3,0.1-2-0.1l-2.5,6.4c-0.1,0.2-0.3,0.3-0.5,0.1l-1.9-1.8c-0.1-0.1-0.1-0.2-0.2-0.3s0-0.2,0-0.3l2.1-5.2L407.7,84.6z
		 M413.9,78.1l0.7,0.6c0.1,0.1,0.3,0.2,0.5,0.2c0.2,0,0.3-0.1,0.5-0.2l2.2-2.3c0.1-0.1,0.2-0.3,0.2-0.5c0-0.2-0.1-0.3-0.2-0.5
		l-0.7-0.6L413.9,78.1z"/>
	<path class="st4" d="M421.8,95.5l-1.8,1.7c-0.2,0.2-0.4,0.2-0.6,0l-2.6-2.8l0,0l0,0l-1.7-1.8c-0.2-0.2-0.2-0.4,0-0.6l11.8-11
		c0.2-0.2,0.4-0.2,0.6,0l1.7,1.8c0.2,0.2,0.2,0.4,0,0.6l-9.7,9l2.4,2.6C422,95.1,422,95.3,421.8,95.5z"/>
	<path class="st4" d="M439,94c0.3,0.4,0.5,0.8,0.7,1.2c0.1,0.5,0.2,0.9,0.1,1.4s-0.2,0.9-0.4,1.3c-0.2,0.4-0.5,0.8-0.9,1.1l-7.5,6.3
		c-0.4,0.3-0.8,0.5-1.2,0.7c-0.5,0.1-0.9,0.2-1.4,0.1c-0.5,0-0.9-0.2-1.3-0.4s-0.8-0.5-1.1-0.9l-2.7-3.2c-0.2-0.2-0.2-0.4,0.1-0.6
		l12.4-10.3c0.2-0.2,0.4-0.2,0.6,0.1L439,94z M436.3,96.5c0.1-0.1,0.2-0.3,0.2-0.5s0-0.4-0.2-0.5l-0.6-0.7l-8.4,7l0.6,0.7
		c0.1,0.1,0.3,0.2,0.5,0.2c0.2,0,0.4,0,0.5-0.2L436.3,96.5z"/>
	<path class="st4" d="M442.7,102.9l0.3-0.3c0,0,0,0,0.1,0c0.1,0,0.1,0,0.2,0.1c0.1,0.1,0.3,0.3,0.6,0.4c0.3,0.1,0.7,0.1,1.2-0.2
		c0.1,0,0.1-0.1,0.2-0.2c0.1-0.1,0.1-0.1,0.1-0.2c0-0.1,0-0.1-0.1-0.2c-0.1-0.1-0.1-0.1-0.2-0.2c-0.2-0.3-0.3-0.5-0.4-0.7
		c-0.1-0.2-0.1-0.4-0.1-0.7c0-0.5,0.3-0.8,0.7-1.2c0.3-0.3,0.7-0.4,1.1-0.3c0.5,0.1,0.9,0.3,1.2,0.7c0.3,0.4,0.5,0.9,0.4,1.4
		c-0.1,0.5-0.3,1-0.7,1.4c-0.1,0.1-0.3,0.3-0.4,0.4c-0.1,0.1-0.3,0.2-0.5,0.3c-0.4,0.2-0.9,0.4-1.4,0.5c-0.5,0.1-0.9,0-1.4-0.2
		c-0.1,0-0.3-0.1-0.4-0.2c-0.1-0.1-0.2-0.1-0.4-0.2c0,0-0.1-0.1-0.1-0.1c-0.1-0.1-0.1-0.1-0.2-0.2c0,0,0-0.1,0-0.1
		C442.6,103.1,442.6,103,442.7,102.9z"/>
	<path class="st4" d="M452.7,112.4c0.1,0.5,0.1,0.9,0,1.4c-0.1,0.4-0.2,0.9-0.5,1.3s-0.6,0.7-1,1l-0.9,0.6c-0.2,0.1-0.4,0.1-0.6,0
		l-2-1.7c-0.2-0.2-0.2-0.3,0-0.5l1.5-1c0.2-0.1,0.2-0.3,0.3-0.4c0-0.2,0-0.4-0.1-0.5l-0.1-0.2c-0.1-0.2-0.3-0.2-0.4-0.3
		c-0.2,0-0.4,0-0.5,0.1l-1.4,1c-0.2,0.1-0.3,0.3-0.4,0.4c-0.1,0.1-0.2,0.3-0.2,0.5l-0.2,4.6c0,0.4-0.2,0.7-0.3,0.9s-0.4,0.4-0.6,0.7
		l-2.4,1.6c-0.4,0.3-0.8,0.5-1.3,0.6c-0.5,0.1-0.9,0.1-1.4,0s-0.9-0.2-1.3-0.5c-0.4-0.2-0.7-0.6-1-1l-0.6-0.9
		c-0.3-0.4-0.5-0.8-0.6-1.3c-0.1-0.5-0.1-0.9,0-1.4c0.1-0.4,0.2-0.9,0.5-1.3c0.2-0.4,0.6-0.7,1-1l1.3-0.9c0.2-0.1,0.4-0.1,0.6,0
		l2,1.7c0.2,0.2,0.2,0.3,0,0.5l-1.9,1.3c-0.2,0.1-0.2,0.3-0.3,0.4c0,0.2,0,0.4,0.1,0.5l0.1,0.2c0.1,0.2,0.3,0.2,0.4,0.3
		c0.2,0,0.4,0,0.5-0.1l1.4-1c0.2-0.2,0.3-0.3,0.5-0.5c0.1-0.2,0.2-0.3,0.2-0.6l0.2-4.6c0.1-0.4,0.2-0.7,0.3-0.9
		c0.1-0.3,0.4-0.5,0.8-0.7l2.1-1.4c0.4-0.3,0.8-0.5,1.3-0.6c0.5-0.1,0.9-0.1,1.4,0s0.9,0.2,1.3,0.5s0.7,0.6,1,1l0.6,0.9
		C452.5,111.5,452.6,111.9,452.7,112.4z"/>
	<path class="st4" d="M457.2,136.4c-0.1,0.4-0.3,0.7-0.5,1c-0.2,0.3-0.6,0.5-0.9,0.8l-2,1.1c-0.4,0.2-0.9,0.4-1.3,0.4
		c-0.5,0.1-0.9,0-1.4-0.1c-0.4-0.1-0.8-0.3-1.2-0.6c-0.4-0.3-0.7-0.6-0.9-1.1l-2.1-3.6c-0.1-0.1-0.1-0.2-0.1-0.3
		c0-0.1,0-0.2,0.2-0.3l14-8c0.2-0.1,0.4-0.1,0.5,0.1l2.1,3.7c0.2,0.4,0.4,0.9,0.4,1.3c0.1,0.5,0,0.9-0.1,1.4
		c-0.1,0.4-0.3,0.8-0.6,1.2s-0.6,0.7-1.1,0.9l-1.6,0.9c-0.8,0.4-1.5,0.6-2.3,0.4c-0.4-0.1-0.8-0.3-1.1-0.5
		C457.3,135.7,457.3,136.1,457.2,136.4z M454.5,135.1c0.2-0.1,0.3-0.2,0.3-0.4c0-0.2,0-0.4-0.1-0.5l-0.4-0.8l-3.5,2l0.4,0.8
		c0.1,0.2,0.2,0.3,0.4,0.3c0.2,0,0.4,0,0.5-0.1L454.5,135.1z M460.5,131.6c0.2-0.1,0.3-0.2,0.3-0.4s0-0.4-0.1-0.5l-0.4-0.8l-3.3,1.9
		l0.4,0.8c0.1,0.2,0.2,0.3,0.4,0.3c0.2,0,0.4,0,0.5-0.1L460.5,131.6z"/>
	<path class="st4" d="M458.7,150.5l-2.2,1.1c-0.2,0.1-0.4,0.1-0.5-0.2l-2.7-5.5c-0.1-0.2-0.1-0.4,0.2-0.5l14.4-7.2
		c0.2-0.1,0.4-0.1,0.5,0.2l2.7,5.5c0.1,0.2,0.1,0.4-0.2,0.5l-2.2,1.1c-0.2,0.1-0.4,0.1-0.5-0.2l-1.4-2.9l-2.9,1.4l1.2,2.5
		c0.1,0.2,0.1,0.4-0.2,0.5l-2.2,1.1c-0.2,0.1-0.4,0.1-0.5-0.2l-1.2-2.5l-3.4,1.7l1.4,2.9C459,150.2,458.9,150.4,458.7,150.5z"/>
	<path class="st4" d="M476,154.9c0,0.5-0.1,0.9-0.3,1.3c-0.2,0.4-0.4,0.8-0.7,1.1c-0.3,0.3-0.7,0.6-1.2,0.8l-1,0.4
		c-0.2,0.1-0.4,0.1-0.6-0.1l-1.6-2.1c-0.2-0.2-0.1-0.3,0.1-0.4l1.7-0.7c0.2-0.1,0.3-0.2,0.4-0.4c0.1-0.2,0.1-0.3,0-0.5l-0.1-0.2
		c-0.1-0.2-0.2-0.3-0.4-0.4c-0.2-0.1-0.3-0.1-0.5,0l-1.6,0.7c-0.2,0.1-0.3,0.2-0.4,0.3c-0.1,0.1-0.2,0.3-0.3,0.5l-1.1,4.5
		c-0.1,0.4-0.3,0.7-0.5,0.8s-0.5,0.4-0.8,0.5l-2.6,1.1c-0.4,0.2-0.9,0.3-1.4,0.3c-0.5,0-0.9-0.1-1.3-0.3c-0.4-0.2-0.8-0.4-1.1-0.7
		c-0.3-0.3-0.6-0.7-0.8-1.2l-0.4-1c-0.2-0.4-0.3-0.9-0.3-1.4s0.1-0.9,0.3-1.3c0.2-0.4,0.4-0.8,0.7-1.1c0.3-0.3,0.7-0.6,1.2-0.8
		l1.4-0.6c0.2-0.1,0.4-0.1,0.6,0.1l1.6,2.1c0.2,0.2,0.1,0.3-0.1,0.4l-2.1,0.9c-0.2,0.1-0.3,0.2-0.4,0.4c-0.1,0.2-0.1,0.3,0,0.5
		l0.1,0.2c0.1,0.2,0.2,0.3,0.4,0.4s0.3,0.1,0.5,0l1.6-0.7c0.2-0.1,0.4-0.2,0.5-0.4c0.2-0.1,0.3-0.3,0.3-0.5l1.1-4.4
		c0.1-0.4,0.3-0.7,0.5-0.9c0.2-0.2,0.5-0.4,0.9-0.6l2.3-1c0.4-0.2,0.9-0.3,1.4-0.3c0.5,0,0.9,0.1,1.3,0.3c0.4,0.2,0.8,0.4,1.1,0.7
		c0.3,0.3,0.6,0.7,0.8,1.2l0.4,1C475.9,154,476,154.5,476,154.9z"/>
	<path class="st4" d="M481.2,169.3l-2.4,0.9c-0.2,0.1-0.4,0-0.5-0.2l-0.7-1.9l-12.4,4.6c-0.2,0.1-0.4,0-0.5-0.2l-0.9-2.4
		c0-0.1,0-0.2,0-0.3c0-0.1,0.1-0.2,0.2-0.2l12.4-4.6l-0.7-1.9c-0.1-0.2,0-0.4,0.2-0.5l2.4-0.9c0.2-0.1,0.4,0,0.5,0.2l2.5,6.8
		C481.5,169.1,481.5,169.3,481.2,169.3z"/>
	<path class="st4" d="M474.7,193.2c-0.5,0.1-0.9,0.2-1.4,0.1c-0.5-0.1-0.9-0.2-1.3-0.4c-0.4-0.2-0.7-0.5-1-0.9
		c-0.3-0.4-0.5-0.8-0.6-1.3l-0.3-1c-0.1-0.5-0.2-0.9-0.1-1.4c0.1-0.5,0.2-0.9,0.4-1.3s0.5-0.7,0.9-1s0.8-0.5,1.3-0.6l9.8-2.7
		c0.5-0.1,0.9-0.2,1.4-0.1c0.5,0.1,0.9,0.2,1.3,0.4c0.4,0.2,0.7,0.5,1,0.9c0.3,0.4,0.5,0.8,0.6,1.3l0.3,1c0.1,0.5,0.2,0.9,0.1,1.4
		c-0.1,0.5-0.2,0.9-0.4,1.3c-0.2,0.4-0.5,0.7-0.9,1c-0.4,0.3-0.8,0.5-1.3,0.6L474.7,193.2z M483.5,187.3c0.2,0,0.3-0.2,0.4-0.3
		c0.1-0.2,0.1-0.3,0.1-0.5l-0.1-0.2c0-0.2-0.2-0.3-0.3-0.4c-0.2-0.1-0.3-0.1-0.5-0.1l-9.6,2.6c-0.2,0-0.3,0.2-0.4,0.3
		c-0.1,0.2-0.1,0.3-0.1,0.5l0.1,0.2c0,0.2,0.2,0.3,0.3,0.4c0.2,0.1,0.3,0.1,0.5,0.1L483.5,187.3z"/>
	<path class="st4" d="M490.2,200.2c0.1,0.5,0.1,0.9,0,1.4c-0.1,0.5-0.3,0.9-0.5,1.3c-0.2,0.4-0.6,0.7-0.9,1s-0.8,0.5-1.3,0.6l-9.6,2
		c-0.5,0.1-0.9,0.1-1.4,0c-0.5-0.1-0.9-0.3-1.3-0.5c-0.4-0.2-0.7-0.6-1-0.9c-0.3-0.4-0.5-0.8-0.6-1.3l-0.9-4.1
		c-0.1-0.3,0-0.4,0.3-0.5l15.8-3.3c0.3-0.1,0.4,0,0.5,0.3L490.2,200.2z M486.6,201.2c0.2,0,0.3-0.1,0.4-0.3c0.1-0.2,0.1-0.3,0.1-0.5
		l-0.2-0.9l-10.6,2.2l0.2,0.9c0,0.2,0.1,0.3,0.3,0.4c0.2,0.1,0.3,0.1,0.5,0.1L486.6,201.2z"/>
	<path class="st4" d="M492.7,214.5c0.1,0.5,0,1-0.1,1.4c-0.1,0.5-0.3,0.9-0.6,1.2c-0.3,0.4-0.6,0.7-1,0.9c-0.4,0.2-0.8,0.4-1.3,0.5
		l-9.7,1.5c-0.5,0.1-1,0-1.4-0.1s-0.9-0.3-1.2-0.6s-0.7-0.6-0.9-1c-0.3-0.4-0.4-0.8-0.5-1.3l-0.6-4.2c0-0.3,0.1-0.4,0.3-0.4
		l15.9-2.4c0.3,0,0.4,0.1,0.4,0.3L492.7,214.5z M489.1,215.3c0.2,0,0.3-0.1,0.4-0.3c0.1-0.1,0.2-0.3,0.1-0.5l-0.1-0.9l-10.8,1.6
		l0.1,0.9c0,0.2,0.1,0.3,0.3,0.4c0.1,0.1,0.3,0.2,0.5,0.1L489.1,215.3z"/>
	<path class="st4" d="M494.4,229.8c-0.1,0.4-0.4,0.8-0.7,1.2c-0.3,0.3-0.6,0.6-1.1,0.9c-0.4,0.2-0.9,0.4-1.3,0.4l-1.1,0.1
		c-0.3,0-0.4-0.1-0.5-0.3l-0.9-2.5c-0.1-0.2,0-0.4,0.2-0.4l1.8-0.2c0.2,0,0.3-0.1,0.5-0.2c0.1-0.1,0.2-0.3,0.2-0.5l0-0.2
		c0-0.2-0.1-0.3-0.2-0.5c-0.1-0.1-0.3-0.2-0.5-0.2l-1.7,0.2c-0.2,0-0.4,0.1-0.5,0.2c-0.1,0.1-0.3,0.2-0.4,0.3l-2.4,3.9
		c-0.2,0.3-0.5,0.5-0.7,0.6s-0.6,0.2-0.9,0.3l-2.9,0.3c-0.5,0-1,0-1.4-0.2c-0.4-0.1-0.8-0.4-1.2-0.7c-0.3-0.3-0.6-0.6-0.9-1.1
		c-0.2-0.4-0.4-0.9-0.4-1.3l-0.1-1.1c0-0.5,0-1,0.2-1.4s0.4-0.8,0.7-1.2c0.3-0.3,0.6-0.6,1.1-0.9s0.9-0.4,1.3-0.4l1.6-0.1
		c0.3,0,0.4,0.1,0.5,0.3l0.9,2.5c0.1,0.2,0,0.4-0.2,0.4l-2.3,0.2c-0.2,0-0.3,0.1-0.5,0.2c-0.1,0.1-0.2,0.3-0.2,0.5l0,0.2
		c0,0.2,0.1,0.3,0.2,0.5c0.1,0.1,0.3,0.2,0.5,0.2l1.7-0.2c0.2,0,0.5-0.1,0.6-0.2s0.3-0.2,0.5-0.4l2.4-3.9c0.2-0.3,0.5-0.5,0.7-0.7
		s0.6-0.2,1-0.3l2.5-0.2c0.5,0,1,0,1.4,0.2c0.4,0.1,0.8,0.4,1.2,0.7c0.3,0.3,0.6,0.6,0.9,1.1c0.2,0.4,0.4,0.9,0.4,1.3l0.1,1.1
		C494.6,228.8,494.5,229.3,494.4,229.8z"/>
</g>
<g>
	<path class="st4" d="M5.5,277.5c-0.3,0.1-0.4,0-0.4-0.3l-0.2-2.6c0-0.2,0.1-0.4,0.4-0.5l2.7-0.5L7.8,272L5,272
		c-0.3,0-0.4-0.1-0.4-0.4L4.3,269c0-0.3,0.1-0.4,0.4-0.4l16.2,0.7c0.3,0,0.4,0.2,0.4,0.4l0.3,3.7c0,0.3-0.1,0.4-0.4,0.5L5.5,277.5z
		 M11,273.2l6.2-1.1l0-0.2l-6.3,0L11,273.2z"/>
	<path class="st4" d="M23.4,289.3l-15.9,2.4c-0.3,0-0.4-0.1-0.4-0.3l-0.3-1.8c0-0.1,0-0.2,0.1-0.3c0.1-0.1,0.1-0.2,0.2-0.2l6.8-4
		L6.6,286c-0.3,0-0.4-0.1-0.4-0.3l-0.4-2.5c0-0.3,0.1-0.4,0.3-0.4l15.9-2.4c0.3,0,0.4,0.1,0.4,0.3l0.3,1.8c0,0.1,0,0.2-0.1,0.3
		s-0.1,0.2-0.2,0.2l-7.7,4.1l8.1-1.2c0.3,0,0.4,0.1,0.4,0.3l0.4,2.5C23.8,289.1,23.6,289.3,23.4,289.3z"/>
	<path class="st4" d="M26.4,302.8c-0.1,0.1-0.2,0.1-0.3,0.1l-10.4-1.1l-6,1.3c-0.3,0.1-0.4,0-0.5-0.3l-0.5-2.5
		c-0.1-0.3,0-0.4,0.3-0.5l6-1.3l9.1-5.2c0.1-0.1,0.2-0.1,0.3,0c0.1,0,0.2,0.1,0.2,0.2l0.6,2.9c0.1,0.3,0,0.4-0.3,0.5l-5.1,2.2l0,0.1
		l5.5,0c0.3,0,0.4,0.1,0.5,0.4l0.6,2.9C26.5,302.7,26.4,302.8,26.4,302.8z"/>
	<path class="st4" d="M16.4,317.8c-0.5,0.1-0.9,0.2-1.4,0.1c-0.5-0.1-0.9-0.2-1.3-0.4c-0.4-0.2-0.7-0.5-1-0.9
		c-0.3-0.4-0.5-0.8-0.6-1.3l-0.3-1c-0.1-0.5-0.2-0.9-0.1-1.4s0.2-0.9,0.4-1.3c0.2-0.4,0.5-0.7,0.9-1c0.4-0.3,0.8-0.5,1.3-0.6
		l9.9-2.6c0.5-0.1,0.9-0.2,1.4-0.1c0.5,0.1,0.9,0.2,1.3,0.4c0.4,0.2,0.7,0.5,1,0.9c0.3,0.4,0.5,0.8,0.6,1.3l0.3,1
		c0.1,0.5,0.2,0.9,0.1,1.4c-0.1,0.5-0.2,0.9-0.4,1.3c-0.2,0.4-0.5,0.7-0.9,1c-0.4,0.3-0.8,0.5-1.3,0.6L16.4,317.8z M25.3,312
		c0.2,0,0.3-0.2,0.4-0.3s0.1-0.3,0.1-0.5l-0.1-0.2c0-0.2-0.2-0.3-0.3-0.4c-0.2-0.1-0.3-0.1-0.5-0.1l-9.6,2.6c-0.2,0-0.3,0.2-0.4,0.3
		c-0.1,0.2-0.1,0.3-0.1,0.5l0.1,0.2c0,0.2,0.2,0.3,0.3,0.4c0.2,0.1,0.3,0.1,0.5,0.1L25.3,312z"/>
	<path class="st4" d="M33.3,327.5L18,332.6c-0.3,0.1-0.4,0-0.5-0.3l-0.6-1.7c0-0.1,0-0.2,0-0.3c0-0.1,0.1-0.2,0.2-0.3l6-5.2l-7,2.3
		c-0.2,0.1-0.4,0-0.5-0.2l-0.8-2.4c-0.1-0.3,0-0.4,0.3-0.5l15.3-5.1c0.2-0.1,0.4,0,0.5,0.3l0.6,1.8c0,0.1,0,0.2,0,0.3
		c0,0.1-0.1,0.2-0.2,0.3l-6.9,5.4l7.8-2.6c0.2-0.1,0.4,0,0.5,0.3l0.8,2.4C33.7,327.2,33.6,327.4,33.3,327.5z"/>
	<path class="st4" d="M25,343.6l-2.3,0.9c-0.2,0.1-0.4,0-0.5-0.2l-2.3-5.7c-0.1-0.2,0-0.4,0.2-0.5l15-6c0.2-0.1,0.4,0,0.5,0.2
		l2.3,5.7c0.1,0.2,0,0.4-0.2,0.5l-2.3,0.9c-0.2,0.1-0.4,0-0.5-0.2l-1.2-3l-3,1.2l1,2.6c0.1,0.2,0,0.4-0.2,0.5l-2.3,0.9
		c-0.2,0.1-0.4,0-0.5-0.2l-1-2.6l-3.5,1.4l1.2,3C25.3,343.4,25.2,343.5,25,343.6z"/>
	<path class="st4" d="M34.5,360.8c0.7,0.1,1.5-0.1,2.2-0.5l0.3-0.1l0.8,1.6l-0.2,0.1c-0.7,0.3-2.3,0.9-4,0.6l-1.6,3l-1.1-2.2
		l0.7-1.3c-1.2-0.4-2.2-1.1-2.9-2.6c-1.5-3,0.3-4.8,1.7-5.5c1.4-0.7,2.9-0.6,4.2,0.1l1,0.5l0.5-0.8c0.5-0.8,1-1.5,1.7-1.9
		c1.8-0.9,3.4,0,4.3,1.7c0.5,0.9,0.9,3-1.2,4.1c-1.2,0.6-2.3,0.4-3.5-0.2l-0.8-0.4L34.5,360.8z M34.3,355.8c-1-0.4-1.9-0.5-2.9,0
		c-1.1,0.6-1.5,2-1,3.2c0.4,0.9,1.2,1.3,2,1.5l2.4-4.4L34.3,355.8z M37.9,355.7c0.7,0.2,1.4,0.5,2.1,0.1c0.8-0.4,1-1.1,0.6-1.8
		c-0.3-0.5-0.9-1.1-1.7-0.6c-0.6,0.3-1.1,1-1.4,1.6l-0.2,0.5L37.9,355.7z"/>
	<path class="st4" d="M41.7,381.4c-0.2,0.2-0.4,0.1-0.5-0.1l-1.3-2.2c-0.1-0.2-0.1-0.4,0.1-0.6l2.2-1.6l-0.9-1.5l-2.5,1.2
		c-0.2,0.1-0.4,0.1-0.6-0.2l-1.3-2.2c-0.1-0.2-0.1-0.4,0.2-0.5l14.9-6.5c0.2-0.1,0.4,0,0.6,0.2l1.9,3.2c0.1,0.2,0.1,0.4-0.1,0.6
		L41.7,381.4z M44.8,375.1l5.1-3.7l-0.1-0.2l-5.6,2.8L44.8,375.1z"/>
	<path class="st4" d="M62.9,384l-13.3,9.1c-0.2,0.1-0.4,0.1-0.5-0.1l-1-1.5c-0.1-0.1-0.1-0.2-0.1-0.3c0-0.1,0-0.2,0.1-0.3l4.4-6.6
		l-6,4.1c-0.2,0.1-0.4,0.1-0.5-0.1l-1.4-2.1c-0.1-0.2-0.1-0.4,0.1-0.5l13.3-9.1c0.2-0.1,0.4-0.1,0.5,0.1l1.1,1.5
		c0.1,0.1,0.1,0.2,0.1,0.3c0,0.1,0,0.2-0.1,0.3l-5.1,7.1l6.7-4.6c0.2-0.1,0.4-0.1,0.5,0.1l1.4,2.1C63.1,383.7,63.1,383.9,62.9,384z"
		/>
	<path class="st4" d="M71.4,394.8c0,0.1-0.1,0.2-0.2,0.2l-9.9,3.6l-4.9,3.8c-0.2,0.2-0.4,0.1-0.6-0.1l-1.6-2
		c-0.2-0.2-0.1-0.4,0.1-0.6l4.9-3.8l5.9-8.7c0.1-0.1,0.1-0.1,0.2-0.1c0.1,0,0.2,0,0.3,0.1l1.8,2.4c0.2,0.2,0.1,0.4,0,0.6l-3.6,4.2
		l0.1,0.1l5-2.4c0.2-0.1,0.4-0.1,0.6,0.1l1.8,2.4C71.4,394.6,71.4,394.7,71.4,394.8z"/>
	<path class="st4" d="M82.9,408.5l-14.1,8.4c-0.2,0.1-0.4,0.1-0.6-0.1l-1.6-1.9c-0.2-0.2-0.2-0.4,0-0.6l3.7-4.6l0,0l-5.1,3.2
		c-0.2,0.1-0.4,0.1-0.6-0.1l-1.6-1.9c-0.2-0.2-0.2-0.4,0-0.6l10-13c0.2-0.2,0.3-0.2,0.5,0l2,2.3c0.2,0.2,0.2,0.4,0,0.6l-6.5,7.1
		l0.1,0.1l7.8-5.5c0.2-0.1,0.4-0.1,0.6,0.1l1.4,1.5c0.2,0.2,0.2,0.4,0,0.6l-6.4,7.1l0.1,0.1l7.8-5.6c0.2-0.1,0.4-0.1,0.6,0.1l2,2.3
		C83.2,408.2,83.1,408.3,82.9,408.5z"/>
	<path class="st4" d="M91.6,417.1l-11.3,11.5c-0.2,0.2-0.4,0.2-0.6,0l-1.8-1.8c-0.2-0.2-0.2-0.4,0-0.6l4.5-4.5l-1.3-1.3l-4.5,4.5
		c-0.2,0.2-0.4,0.2-0.6,0l-1.8-1.8c-0.2-0.2-0.2-0.4,0-0.6l11.3-11.5c0.2-0.2,0.4-0.2,0.6,0l1.8,1.8c0.2,0.2,0.2,0.4,0,0.6l-4.5,4.6
		l1.3,1.3l4.5-4.6c0.2-0.2,0.4-0.2,0.6,0l1.8,1.8C91.8,416.7,91.8,416.9,91.6,417.1z"/>
	<path class="st4" d="M91.4,435.2l-1.7,1.9c-0.2,0.2-0.4,0.2-0.6,0l-4.6-4c-0.2-0.2-0.2-0.4,0-0.6l10.7-12.1c0.2-0.2,0.4-0.2,0.6,0
		l4.6,4c0.2,0.2,0.2,0.4,0,0.6l-1.7,1.9c-0.2,0.2-0.4,0.2-0.6,0l-2.4-2.1l-2.1,2.4l2.1,1.8c0.2,0.2,0.2,0.4,0,0.6l-1.7,1.9
		c-0.2,0.2-0.4,0.2-0.6,0l-2.1-1.8l-2.5,2.9l2.4,2.1C91.6,434.8,91.6,435,91.4,435.2z"/>
	<path class="st4" d="M96.7,442.8c-0.2,0.2-0.4,0.2-0.6,0l-2-1.6c-0.2-0.2-0.2-0.3,0-0.5l10-12.6c0.2-0.2,0.3-0.2,0.6-0.1l3.3,2.6
		c0.4,0.3,0.7,0.7,0.9,1.1c0.2,0.4,0.4,0.8,0.4,1.3c0.1,0.4,0,0.9-0.1,1.4c-0.1,0.5-0.3,0.9-0.6,1.3l-2.2,2.7
		c-0.4,0.5-1,0.9-1.6,1.1s-1.3,0.2-2,0.1l-1.8,6.6c-0.1,0.2-0.3,0.3-0.5,0.1l-2-1.6c-0.1-0.1-0.1-0.2-0.2-0.3c0-0.1,0-0.2,0-0.4
		l1.6-5.4L96.7,442.8z M102.2,435.8l0.7,0.6c0.1,0.1,0.3,0.2,0.5,0.1c0.2,0,0.3-0.1,0.5-0.3l2-2.5c0.1-0.1,0.2-0.3,0.1-0.5
		s-0.1-0.3-0.3-0.5l-0.7-0.6L102.2,435.8z"/>
	<path class="st4" d="M112.1,451.1l-1.5,2c-0.2,0.2-0.3,0.2-0.5,0.1l-5-3.5c-0.2-0.2-0.2-0.3-0.1-0.5l9.3-13.2
		c0.2-0.2,0.3-0.2,0.5-0.1l5,3.5c0.2,0.2,0.2,0.3,0.1,0.5l-1.4,2c-0.2,0.2-0.3,0.2-0.5,0.1l-2.6-1.9l-1.9,2.6l2.3,1.6
		c0.2,0.2,0.2,0.3,0.1,0.5l-1.4,2c-0.2,0.2-0.3,0.2-0.6,0.1l-2.3-1.6l-2.2,3.1l2.6,1.9C112.3,450.8,112.3,450.9,112.1,451.1z"/>
	<path class="st5" d="M142,453.5L131.3,466c-0.2,0.2-0.4,0.2-0.6,0.1l-2.2-1.2c-0.2-0.1-0.3-0.3-0.2-0.6l2.1-5.6l0,0l-3.8,4.6
		c-0.2,0.2-0.4,0.2-0.6,0.1l-2.2-1.2c-0.2-0.1-0.3-0.3-0.2-0.6l5.4-15.5c0.1-0.2,0.3-0.3,0.5-0.2l2.6,1.5c0.2,0.1,0.3,0.3,0.2,0.6
		l-3.9,8.8l0.1,0.1l5.7-7.7c0.2-0.2,0.4-0.3,0.6-0.1l1.8,1c0.2,0.1,0.3,0.3,0.2,0.6l-3.8,8.8l0.1,0.1l5.6-7.8
		c0.2-0.2,0.4-0.3,0.6-0.1l2.6,1.5C142.1,453.1,142.2,453.3,142,453.5z"/>
	<path class="st5" d="M158,461.2l-9.7,13.3c-0.1,0.2-0.3,0.3-0.6,0.2l-2.2-1.1c-0.2-0.1-0.3-0.3-0.2-0.5l1.6-5.7l0,0l-3.4,4.9
		c-0.1,0.2-0.3,0.3-0.6,0.2l-2.2-1.1c-0.2-0.1-0.3-0.3-0.2-0.5l4.2-15.9c0.1-0.3,0.2-0.3,0.5-0.2l2.7,1.3c0.2,0.1,0.3,0.3,0.2,0.5
		l-3.2,9l0.1,0l5.1-8.1c0.1-0.2,0.3-0.3,0.6-0.2l1.9,0.9c0.2,0.1,0.3,0.3,0.2,0.5l-3.1,9.1l0.1,0l5-8.2c0.1-0.2,0.3-0.3,0.6-0.2
		l2.7,1.3C158.1,460.8,158.2,461,158,461.2z"/>
	<path class="st5" d="M174.6,467.7l-8.6,14c-0.1,0.2-0.3,0.3-0.6,0.2l-2.3-0.9c-0.2-0.1-0.3-0.3-0.3-0.5l1.2-5.9l0,0l-3,5.1
		c-0.1,0.2-0.3,0.3-0.6,0.2l-2.3-0.9c-0.2-0.1-0.3-0.3-0.3-0.5l2.9-16.1c0.1-0.3,0.2-0.3,0.5-0.2l2.8,1.1c0.2,0.1,0.3,0.3,0.3,0.5
		l-2.5,9.2l0.1,0l4.4-8.5c0.1-0.2,0.3-0.3,0.5-0.2l1.9,0.7c0.2,0.1,0.3,0.3,0.3,0.5l-2.4,9.3l0.1,0l4.3-8.5c0.1-0.2,0.3-0.3,0.5-0.2
		l2.8,1.1C174.7,467.3,174.7,467.5,174.6,467.7z"/>
	<path class="st5" d="M172.1,482.4c0.2-0.5,0.5-0.8,0.9-1c0.4-0.2,0.9-0.3,1.4-0.1s0.8,0.5,1,0.9c0.2,0.4,0.3,0.9,0.1,1.4
		c-0.2,0.5-0.5,0.8-0.9,1c-0.5,0.2-0.9,0.3-1.4,0.1c-0.5-0.2-0.8-0.5-1-0.9C171.9,483.4,171.9,482.9,172.1,482.4z"/>
	<path class="st6" d="M189,480.9c0.2,0.3,0.3,0.7,0.3,1.1c0,0.4,0,0.8-0.1,1.2l-0.6,2.2c-0.1,0.5-0.3,0.9-0.6,1.3
		c-0.3,0.4-0.6,0.7-1,0.9c-0.4,0.2-0.8,0.4-1.3,0.4c-0.5,0.1-0.9,0-1.4-0.1l-4-1.1c-0.1,0-0.2-0.1-0.3-0.1c-0.1-0.1-0.1-0.2-0.1-0.4
		l4.3-15.5c0.1-0.3,0.2-0.3,0.5-0.3l4.1,1.1c0.5,0.1,0.9,0.3,1.3,0.6c0.4,0.3,0.7,0.6,0.9,1c0.2,0.4,0.4,0.8,0.4,1.3
		c0.1,0.5,0,0.9-0.1,1.4l-0.5,1.8c-0.2,0.8-0.7,1.5-1.3,1.9c-0.4,0.2-0.7,0.4-1.2,0.4C188.6,480.3,188.8,480.6,189,480.9z
		 M186.2,481.8c0.1-0.2,0-0.4-0.1-0.5c-0.1-0.2-0.2-0.3-0.4-0.3l-0.9-0.2l-1.1,3.8l0.9,0.2c0.2,0.1,0.4,0,0.5-0.1
		c0.2-0.1,0.3-0.2,0.3-0.4L186.2,481.8z M188,475.2c0.1-0.2,0-0.4-0.1-0.5c-0.1-0.2-0.2-0.3-0.4-0.3l-0.9-0.2l-1,3.7l0.9,0.2
		c0.2,0.1,0.4,0,0.5-0.1c0.2-0.1,0.3-0.2,0.3-0.4L188,475.2z"/>
	<path class="st6" d="M200.3,488.7l-0.5,2.4c-0.1,0.3-0.2,0.4-0.5,0.3l-6-1.3c-0.3-0.1-0.4-0.2-0.3-0.5l3.5-15.7
		c0.1-0.3,0.2-0.4,0.5-0.3l6,1.3c0.3,0.1,0.4,0.2,0.3,0.5l-0.5,2.4c-0.1,0.3-0.2,0.4-0.5,0.3l-3.1-0.7l-0.7,3.1l2.7,0.6
		c0.3,0.1,0.4,0.2,0.3,0.5l-0.5,2.4c-0.1,0.3-0.2,0.4-0.5,0.3l-2.7-0.6l-0.8,3.7l3.1,0.7C200.2,488.3,200.3,488.5,200.3,488.7z"/>
	<path class="st6" d="M215.4,477.6l-0.4,2.5c0,0.3-0.2,0.4-0.5,0.3l-2-0.3l-2.2,13c0,0.3-0.2,0.4-0.5,0.3l-2.5-0.4
		c-0.1,0-0.2-0.1-0.2-0.2c-0.1-0.1-0.1-0.2-0.1-0.3l2.2-13l-1.9-0.3c-0.3,0-0.4-0.2-0.3-0.5l0.4-2.5c0-0.3,0.2-0.4,0.5-0.3l7.2,1.2
		C215.3,477.2,215.4,477.3,215.4,477.6z"/>
	<path class="st5" d="M225.4,492.6l-0.3,2.5c0,0.3-0.2,0.4-0.4,0.3l-3.8-0.4l-0.1,0l0,0l-2.5-0.3c-0.3,0-0.4-0.2-0.3-0.4l1.8-16
		c0-0.3,0.2-0.4,0.4-0.3l2.5,0.3c0.3,0,0.4,0.2,0.3,0.4l-1.5,13.1l3.5,0.4C225.3,492.1,225.4,492.3,225.4,492.6z"/>
	<path class="st5" d="M233.5,495.7c0,0.3-0.2,0.4-0.4,0.4l-2.5-0.2c-0.3,0-0.4-0.2-0.4-0.4l1.1-16.1c0-0.3,0.2-0.4,0.4-0.4l2.5,0.2
		c0.3,0,0.4,0.2,0.4,0.4L233.5,495.7z"/>
	<path class="st5" d="M249.1,479.9c0,0.1,0,0.2,0,0.3l-4,7.1l3.6,9c0,0.1,0,0.2,0,0.3c-0.1,0.1-0.1,0.1-0.3,0.1l-2.8-0.1
		c-0.1,0-0.2,0-0.3-0.1c-0.1-0.1-0.2-0.1-0.2-0.2l-1.9-4.7l-0.5,0.9l-0.1,3.7c0,0.3-0.1,0.4-0.4,0.4l-2.5-0.1
		c-0.3,0-0.4-0.1-0.4-0.4l0.4-16.1c0-0.3,0.1-0.4,0.4-0.4l2.5,0.1c0.3,0,0.4,0.1,0.4,0.4l-0.1,4.9l2.7-4.9c0.1-0.2,0.3-0.3,0.5-0.3
		l2.8,0.1C249,479.8,249.1,479.8,249.1,479.9z"/>
	<path class="st5" d="M260.7,493.5l0.1,2.5c0,0.3-0.1,0.4-0.4,0.4l-6.1,0.2c-0.3,0-0.4-0.1-0.4-0.4l-0.5-16.1c0-0.3,0.1-0.4,0.4-0.4
		l6.1-0.2c0.3,0,0.4,0.1,0.4,0.4l0.1,2.5c0,0.3-0.1,0.4-0.4,0.4l-3.2,0.1l0.1,3.2l2.8-0.1c0.3,0,0.4,0.1,0.4,0.4l0.1,2.5
		c0,0.3-0.1,0.4-0.4,0.4l-2.8,0.1l0.1,3.8l3.2-0.1C260.6,493.1,260.7,493.2,260.7,493.5z"/>
	<path class="st4" d="M274.6,495c0.1,0.3,0,0.4-0.3,0.4l-2.6,0.2c-0.2,0-0.4-0.1-0.5-0.4l-0.5-2.7l-1.7,0.1l0,2.8
		c0,0.3-0.1,0.4-0.4,0.4l-2.6,0.2c-0.3,0-0.4-0.1-0.4-0.4l0.8-16.2c0-0.3,0.2-0.4,0.4-0.4l3.7-0.3c0.3,0,0.4,0.1,0.5,0.4L274.6,495z
		 M270.3,489.4l-1-6.2l-0.2,0l0,6.3L270.3,489.4z"/>
	<path class="st5" d="M286.4,477.2l2.2,16c0,0.3-0.1,0.4-0.3,0.4l-1.8,0.3c-0.1,0-0.2,0-0.3-0.1c-0.1-0.1-0.2-0.1-0.2-0.2l-4-6.9
		l1,7.3c0,0.3-0.1,0.4-0.3,0.4l-2.5,0.3c-0.3,0-0.4-0.1-0.4-0.3l-2.2-16c0-0.3,0.1-0.4,0.3-0.4l1.8-0.3c0.1,0,0.2,0,0.3,0.1
		c0.1,0.1,0.2,0.1,0.2,0.2l4,7.7l-1.1-8.1c0-0.3,0.1-0.4,0.3-0.4l2.5-0.4C286.2,476.8,286.4,477,286.4,477.2z"/>
	<path class="st5" d="M297.6,491.5c0,0.3-0.1,0.4-0.3,0.5l-2.5,0.5c-0.3,0-0.4-0.1-0.5-0.3l-3-15.8c0-0.3,0.1-0.4,0.3-0.5l2.5-0.5
		c0.3,0,0.4,0.1,0.5,0.3L297.6,491.5z"/>
	<path class="st5" d="M308.2,472.6l3.8,15.7c0.1,0.3,0,0.4-0.3,0.5l-1.8,0.4c-0.1,0-0.2,0-0.3,0c-0.1,0-0.2-0.1-0.3-0.2l-4.6-6.4
		l1.7,7.1c0.1,0.3,0,0.4-0.3,0.5l-2.4,0.6c-0.3,0.1-0.4,0-0.5-0.3l-3.8-15.7c-0.1-0.3,0-0.4,0.3-0.5l1.8-0.4c0.1,0,0.2,0,0.3,0
		c0.1,0,0.2,0.1,0.3,0.2l4.8,7.3l-1.9-7.9c-0.1-0.3,0-0.4,0.3-0.5l2.4-0.6C308,472.3,308.1,472.4,308.2,472.6z"/>
	<path class="st5" d="M319.7,468.8c0.3-0.1,0.4,0,0.5,0.3l3.8,12.6c0.1,0.5,0.2,0.9,0.1,1.4c-0.1,0.5-0.2,0.9-0.4,1.3
		c-0.2,0.4-0.5,0.8-0.9,1.1c-0.4,0.3-0.8,0.5-1.2,0.7l-1,0.3c-0.5,0.1-0.9,0.2-1.4,0.1s-0.9-0.2-1.3-0.4c-0.4-0.2-0.8-0.5-1.1-0.9
		s-0.5-0.8-0.7-1.2l-0.9-2.9c-0.1-0.3,0-0.4,0.2-0.6l2.3-1.4c0.2-0.1,0.4-0.1,0.4,0.2l1.1,3.6c0.1,0.2,0.2,0.3,0.3,0.4
		c0.2,0.1,0.3,0.1,0.5,0l0.2-0.1c0.2-0.1,0.3-0.2,0.4-0.3c0.1-0.2,0.1-0.3,0-0.5l-3.8-12.5c-0.1-0.3,0-0.4,0.3-0.5L319.7,468.8z"/>
	<path class="st5" d="M338,479.9c0.1,0.2,0.1,0.4-0.2,0.5l-2.4,0.9c-0.2,0.1-0.4,0-0.5-0.2l-1.2-2.5l-1.6,0.6l0.7,2.7
		c0.1,0.3,0,0.4-0.3,0.5l-2.4,0.9c-0.2,0.1-0.4,0-0.5-0.3l-3.5-15.9c-0.1-0.3,0-0.4,0.3-0.5l3.5-1.3c0.2-0.1,0.4,0,0.6,0.2
		L338,479.9z M332.4,475.6l-2.6-5.7l-0.2,0.1l1.6,6L332.4,475.6z"/>
	<path class="st5" d="M341.5,477.2c-0.2-0.5-0.2-0.9,0-1.4c0.2-0.5,0.5-0.8,1-1c0.5-0.2,0.9-0.2,1.4,0c0.5,0.2,0.8,0.5,1,1
		c0.2,0.5,0.2,0.9,0,1.4c-0.2,0.5-0.5,0.8-1,1c-0.5,0.2-0.9,0.2-1.4,0C342,477.9,341.7,477.6,341.5,477.2z"/>
	<path class="st5" d="M348.1,457.6c0.5,0,0.9,0.1,1.3,0.2s0.8,0.4,1.2,0.7s0.6,0.7,0.8,1.1l0.7,1.5c0.1,0.2,0.1,0.4-0.1,0.6
		l-2.2,1.4c-0.2,0.2-0.3,0.1-0.5-0.1l-0.9-2c-0.1-0.2-0.2-0.3-0.4-0.4c-0.2-0.1-0.3-0.1-0.5,0l-0.2,0.1c-0.2,0.1-0.3,0.2-0.4,0.4
		c-0.1,0.2-0.1,0.3,0,0.5l4.2,9c0.1,0.2,0.2,0.3,0.4,0.4c0.2,0.1,0.3,0.1,0.5,0l0.2-0.1c0.2-0.1,0.3-0.2,0.4-0.4
		c0.1-0.2,0.1-0.3,0-0.5l-1.4-3.1c-0.1-0.2,0-0.4,0.2-0.4l2.5-0.8c0.3,0,0.4,0.1,0.5,0.3l1.3,2.7c0.2,0.4,0.3,0.9,0.3,1.4
		c0,0.5-0.1,0.9-0.2,1.3c-0.2,0.4-0.4,0.8-0.7,1.2c-0.3,0.4-0.7,0.6-1.1,0.8l-1,0.5c-0.4,0.2-0.9,0.3-1.4,0.3s-0.9-0.1-1.3-0.2
		s-0.8-0.4-1.2-0.7c-0.4-0.3-0.6-0.7-0.8-1.1l-4.3-9.2c-0.2-0.4-0.3-0.9-0.3-1.4s0.1-0.9,0.2-1.3c0.2-0.4,0.4-0.8,0.7-1.2
		c0.3-0.4,0.7-0.6,1.1-0.8l1-0.5C347.2,457.7,347.6,457.6,348.1,457.6z"/>
	<path class="st5" d="M367.4,462.8c0.2,0.4,0.4,0.9,0.4,1.4s0,0.9-0.1,1.4c-0.1,0.4-0.3,0.8-0.6,1.2s-0.7,0.7-1.1,0.9l-0.9,0.5
		c-0.4,0.2-0.9,0.4-1.4,0.4c-0.5,0-0.9,0-1.4-0.1c-0.4-0.1-0.8-0.3-1.2-0.6s-0.7-0.7-0.9-1.1l-4.8-9c-0.2-0.4-0.4-0.9-0.4-1.4
		c0-0.5,0-0.9,0.1-1.4c0.1-0.4,0.3-0.8,0.6-1.2s0.7-0.7,1.1-0.9l0.9-0.5c0.4-0.2,0.9-0.4,1.4-0.4s0.9,0,1.4,0.1s0.8,0.3,1.2,0.6
		c0.4,0.3,0.7,0.7,0.9,1.1L367.4,462.8z M359.8,455.5c-0.1-0.2-0.2-0.3-0.4-0.3c-0.2-0.1-0.3,0-0.5,0.1l-0.2,0.1
		c-0.2,0.1-0.3,0.2-0.3,0.4c-0.1,0.2,0,0.4,0.1,0.5l4.7,8.7c0.1,0.2,0.2,0.3,0.4,0.3s0.3,0,0.5-0.1l0.2-0.1c0.2-0.1,0.3-0.2,0.3-0.4
		c0.1-0.2,0-0.3-0.1-0.5L359.8,455.5z"/>
	<path class="st5" d="M374.6,443.2l8.5,13.7c0.1,0.2,0.1,0.4-0.1,0.5l-2.3,1.4c-0.2,0.1-0.4,0.1-0.5-0.1l-3.9-6.4l1.9,6.7
		c0,0.1,0,0.2,0,0.2c0,0-0.1,0-0.2,0l-5.1-4.7l3.9,6.4c0.1,0.2,0.1,0.4-0.1,0.5l-2.3,1.4c-0.2,0.1-0.4,0.1-0.5-0.1l-8.5-13.7
		c-0.1-0.2-0.1-0.4,0.1-0.5l2-1.3c0.1-0.1,0.2-0.1,0.3,0s0.2,0.1,0.3,0.1l6.5,6.2l-2.7-8.6c0-0.1,0-0.2,0-0.3c0-0.1,0.1-0.2,0.2-0.3
		l2-1.3C374.3,442.9,374.5,443,374.6,443.2z"/>
	<path class="st4" d="M394.3,439.7c0.4,0.1,0.7,0.2,1,0.4s0.6,0.5,0.9,0.8l1.4,1.9c0.3,0.4,0.5,0.8,0.6,1.3c0.1,0.5,0.1,0.9,0.1,1.4
		c-0.1,0.4-0.2,0.9-0.5,1.3c-0.2,0.4-0.5,0.8-0.9,1l-3.3,2.5c-0.1,0.1-0.2,0.1-0.3,0.2s-0.2,0-0.3-0.2l-9.6-12.9
		c-0.2-0.2-0.1-0.4,0.1-0.6l3.4-2.5c0.4-0.3,0.8-0.5,1.3-0.6c0.5-0.1,0.9-0.1,1.4-0.1c0.4,0.1,0.9,0.2,1.3,0.5
		c0.4,0.2,0.8,0.5,1,0.9l1.1,1.5c0.5,0.7,0.7,1.4,0.7,2.2c0,0.4-0.2,0.8-0.4,1.2C393.5,439.7,393.9,439.6,394.3,439.7z M389.1,437
		c-0.1-0.2-0.3-0.2-0.4-0.3s-0.4,0-0.5,0.1l-0.7,0.5l2.3,3.1l0.7-0.5c0.2-0.1,0.2-0.3,0.3-0.4c0-0.2,0-0.4-0.1-0.5L389.1,437z
		 M393.3,442.5c-0.1-0.2-0.3-0.2-0.4-0.3c-0.2,0-0.4,0-0.5,0.1l-0.7,0.5l2.4,3.2l0.7-0.5c0.2-0.1,0.2-0.3,0.3-0.4
		c0-0.2,0-0.4-0.1-0.5L393.3,442.5z"/>
	<path class="st4" d="M398.9,424.9l8.4,10.1c0.3,0.4,0.5,0.8,0.7,1.2c0.1,0.5,0.2,0.9,0.1,1.4c0,0.5-0.2,0.9-0.4,1.3
		c-0.2,0.4-0.5,0.8-0.9,1.1l-0.8,0.7c-0.4,0.3-0.8,0.5-1.2,0.7c-0.5,0.1-0.9,0.2-1.4,0.1c-0.5,0-0.9-0.2-1.3-0.4
		c-0.4-0.2-0.8-0.5-1.1-0.9l-8.4-10.1c-0.2-0.2-0.2-0.4,0.1-0.6l1.9-1.6c0.2-0.2,0.4-0.1,0.6,0.1l8.3,10c0.1,0.1,0.3,0.2,0.5,0.2
		c0.2,0,0.3,0,0.5-0.2l0.2-0.1c0.1-0.1,0.2-0.3,0.2-0.5c0-0.2,0-0.3-0.2-0.5l-8.3-10c-0.2-0.2-0.2-0.4,0.1-0.6l1.9-1.6
		C398.6,424.7,398.8,424.7,398.9,424.9z"/>
	<path class="st4" d="M415.2,432c0.2,0.2,0.2,0.4,0,0.6l-1.9,1.7c-0.2,0.2-0.4,0.2-0.6,0l-10.8-12c-0.2-0.2-0.2-0.4,0-0.6l1.9-1.7
		c0.2-0.2,0.4-0.2,0.6,0L415.2,432z"/>
	<path class="st4" d="M422.3,421.7l1.8,1.8c0.2,0.2,0.2,0.4,0,0.6l-2.7,2.7l0,0l0,0l-1.8,1.8c-0.2,0.2-0.4,0.2-0.6,0L407.7,417
		c-0.2-0.2-0.2-0.4,0-0.6l1.8-1.8c0.2-0.2,0.4-0.2,0.6,0l9.2,9.5l2.5-2.4C422,421.5,422.1,421.5,422.3,421.7z"/>
	<path class="st4" d="M419.4,405l1.8,1.7c0.2,0.2,0.2,0.4,0,0.6l-1.4,1.5l9.6,9.1c0.2,0.2,0.2,0.4,0,0.6l-1.7,1.8
		c-0.1,0.1-0.2,0.1-0.3,0.1c-0.1,0-0.2,0-0.3-0.1l-9.6-9.1l-1.4,1.4c-0.2,0.2-0.4,0.2-0.6,0l-1.8-1.7c-0.2-0.2-0.2-0.4,0-0.6l5-5.3
		C419,404.9,419.2,404.9,419.4,405z"/>
	<path class="st4" d="M440.7,400.2c0.4,0.3,0.7,0.7,0.9,1.1c0.2,0.4,0.3,0.9,0.4,1.3s0,0.9-0.1,1.4c-0.1,0.5-0.3,0.9-0.7,1.3
		l-0.7,0.8c-0.3,0.4-0.7,0.7-1.1,0.9s-0.9,0.3-1.3,0.4c-0.4,0-0.9,0-1.4-0.1c-0.5-0.1-0.9-0.3-1.2-0.7l-7.9-6.4
		c-0.4-0.3-0.7-0.7-0.9-1.1c-0.2-0.4-0.3-0.9-0.4-1.3s0-0.9,0.1-1.4c0.1-0.5,0.3-0.9,0.7-1.2l0.7-0.8c0.3-0.4,0.7-0.7,1.1-0.9
		c0.4-0.2,0.9-0.3,1.3-0.4c0.4,0,0.9,0,1.4,0.1c0.5,0.1,0.9,0.3,1.3,0.7L440.7,400.2z M430.8,396.4c-0.1-0.1-0.3-0.2-0.5-0.1
		c-0.2,0-0.3,0.1-0.5,0.2l-0.1,0.2c-0.1,0.1-0.2,0.3-0.1,0.5c0,0.2,0.1,0.3,0.2,0.5l7.7,6.2c0.1,0.1,0.3,0.2,0.5,0.1
		c0.2,0,0.3-0.1,0.5-0.2l0.1-0.2c0.1-0.1,0.2-0.3,0.1-0.5c0-0.2-0.1-0.3-0.2-0.5L430.8,396.4z"/>
	<path class="st4" d="M438.2,381.4l13.1,9.5c0.2,0.2,0.2,0.3,0.1,0.6l-1.1,1.5c-0.1,0.1-0.2,0.2-0.3,0.2c-0.1,0-0.2,0-0.3,0
		l-7.7-1.9l5.9,4.3c0.2,0.2,0.2,0.3,0.1,0.6l-1.5,2c-0.2,0.2-0.3,0.2-0.6,0.1l-13.1-9.5c-0.2-0.2-0.2-0.3-0.1-0.6l1.1-1.5
		c0.1-0.1,0.2-0.2,0.3-0.2c0.1,0,0.2,0,0.3,0l8.4,2.4l-6.6-4.8c-0.2-0.2-0.2-0.3-0.1-0.6l1.5-2C437.8,381.3,438,381.3,438.2,381.4z"
		/>
	<path class="st4" d="M454.8,371.4c0.4-0.1,0.7-0.1,1.1,0s0.7,0.2,1.1,0.4l2,1.2c0.4,0.3,0.8,0.6,1,1c0.3,0.4,0.5,0.8,0.6,1.2
		c0.1,0.4,0.1,0.9,0.1,1.4s-0.2,0.9-0.5,1.3l-2.2,3.5c-0.1,0.1-0.1,0.2-0.2,0.3c-0.1,0.1-0.2,0.1-0.4-0.1l-13.8-8.4
		c-0.2-0.1-0.3-0.3-0.1-0.5l2.2-3.6c0.3-0.4,0.6-0.8,1-1c0.4-0.3,0.8-0.5,1.2-0.6c0.4-0.1,0.9-0.1,1.4-0.1c0.5,0.1,0.9,0.2,1.3,0.5
		l1.6,1c0.7,0.5,1.2,1.1,1.4,1.8c0.1,0.4,0.1,0.8,0.1,1.2C454.1,371.6,454.4,371.5,454.8,371.4z M449,370.8
		c-0.2-0.1-0.3-0.1-0.5-0.1c-0.2,0-0.3,0.1-0.4,0.3l-0.5,0.8l3.3,2l0.5-0.8c0.1-0.2,0.1-0.3,0.1-0.5s-0.1-0.3-0.3-0.4L449,370.8z
		 M454.9,374.4c-0.2-0.1-0.3-0.1-0.5-0.1c-0.2,0-0.3,0.1-0.4,0.3l-0.5,0.8l3.4,2.1l0.5-0.8c0.1-0.2,0.1-0.3,0.1-0.5
		s-0.1-0.3-0.3-0.4L454.9,374.4z"/>
	<path class="st4" d="M465.3,363l2.2,1.2c0.2,0.1,0.3,0.3,0.2,0.5l-1.8,3.3l0,0l0,0l-1.2,2.2c-0.1,0.2-0.3,0.3-0.5,0.2l-14.2-7.7
		c-0.2-0.1-0.3-0.3-0.2-0.5l1.2-2.2c0.1-0.2,0.3-0.3,0.5-0.2l11.6,6.3l1.7-3.1C464.9,362.9,465,362.8,465.3,363z"/>
	<path class="st4" d="M470.1,352.1c0.4,0.2,0.8,0.5,1.1,0.9c0.3,0.4,0.5,0.7,0.7,1.2s0.2,0.9,0.2,1.3s-0.1,0.9-0.3,1.4l-0.5,1
		c-0.2,0.4-0.5,0.8-0.9,1.1c-0.4,0.3-0.7,0.5-1.2,0.7c-0.4,0.1-0.9,0.2-1.3,0.2s-0.9-0.1-1.4-0.3l-9.2-4.4c-0.4-0.2-0.8-0.5-1.1-0.9
		s-0.5-0.7-0.7-1.2c-0.1-0.4-0.2-0.9-0.2-1.3c0-0.5,0.1-0.9,0.3-1.4l0.5-1c0.2-0.4,0.5-0.8,0.9-1.1c0.4-0.3,0.7-0.5,1.2-0.7
		c0.4-0.1,0.9-0.2,1.3-0.2c0.5,0,0.9,0.1,1.4,0.3L470.1,352.1z M459.6,350.7c-0.2-0.1-0.3-0.1-0.5,0s-0.3,0.2-0.4,0.3l-0.1,0.2
		c-0.1,0.2-0.1,0.3,0,0.5s0.2,0.3,0.3,0.4l8.9,4.3c0.2,0.1,0.3,0.1,0.5,0c0.2-0.1,0.3-0.2,0.4-0.3l0.1-0.2c0.1-0.2,0.1-0.3,0-0.5
		c-0.1-0.2-0.2-0.3-0.3-0.4L459.6,350.7z"/>
	<path class="st4" d="M461.8,337.4c0.3-0.3,0.7-0.6,1.1-0.7s0.9-0.3,1.3-0.3c0.5,0,0.9,0.1,1.4,0.3l1.6,0.7c0.2,0.1,0.4,0.3,0.3,0.5
		l-0.6,2.5c0,0.3-0.2,0.3-0.4,0.2l-2-0.8c-0.2-0.1-0.3-0.1-0.5,0s-0.3,0.2-0.4,0.4l-0.1,0.2c-0.1,0.2-0.1,0.3,0,0.5
		c0.1,0.2,0.2,0.3,0.4,0.4l9.1,3.8c0.2,0.1,0.3,0.1,0.5,0c0.2-0.1,0.3-0.2,0.4-0.4l0.1-0.2c0.1-0.2,0.1-0.3,0-0.5s-0.2-0.3-0.4-0.4
		l-3.1-1.3c-0.2-0.1-0.3-0.3-0.1-0.4l1.3-2.2c0.2-0.2,0.4-0.2,0.6-0.1l2.7,1.1c0.5,0.2,0.8,0.5,1.2,0.8c0.3,0.3,0.6,0.7,0.7,1.1
		s0.3,0.9,0.3,1.3c0,0.5-0.1,0.9-0.3,1.4l-0.4,1c-0.2,0.5-0.5,0.8-0.8,1.2c-0.3,0.3-0.7,0.6-1.1,0.7c-0.4,0.2-0.9,0.3-1.3,0.3
		c-0.5,0-0.9-0.1-1.4-0.3l-9.4-3.9c-0.5-0.2-0.8-0.5-1.2-0.8c-0.3-0.3-0.6-0.7-0.7-1.1c-0.2-0.4-0.3-0.9-0.3-1.3
		c0-0.5,0.1-0.9,0.3-1.4l0.4-1C461.2,338.1,461.5,337.7,461.8,337.4z"/>
	<path class="st4" d="M467.2,323.1c0.1,0,0.2,0,0.3,0.1l5.5,6l9.7-0.5c0.1,0,0.2,0,0.2,0.1c0.1,0.1,0.1,0.2,0,0.3l-0.9,2.6
		c0,0.1-0.1,0.2-0.2,0.3s-0.2,0.1-0.3,0.1l-5.1,0.4l0.7,0.8l3.5,1.3c0.2,0.1,0.3,0.3,0.2,0.5l-0.8,2.4c-0.1,0.2-0.3,0.3-0.5,0.2
		l-15.2-5.4c-0.2-0.1-0.3-0.3-0.2-0.5l0.8-2.4c0.1-0.2,0.3-0.3,0.5-0.2l4.6,1.7l-3.8-4.1c-0.2-0.2-0.2-0.4-0.1-0.6l0.9-2.7
		C467,323.2,467.1,323.1,467.2,323.1z"/>
	<path class="st4" d="M469.8,314.2c0.3-0.4,0.7-0.6,1.1-0.9s0.8-0.4,1.3-0.4c0.5-0.1,0.9,0,1.4,0.1l1.6,0.5c0.3,0.1,0.4,0.2,0.4,0.5
		l-0.4,2.6c0,0.3-0.1,0.3-0.4,0.3l-2.1-0.6c-0.2-0.1-0.4,0-0.5,0.1c-0.2,0.1-0.3,0.2-0.3,0.4l-0.1,0.2c-0.1,0.2,0,0.4,0.1,0.5
		c0.1,0.2,0.2,0.3,0.4,0.3l9.5,2.8c0.2,0.1,0.4,0,0.5-0.1c0.2-0.1,0.3-0.2,0.3-0.4l0.1-0.2c0.1-0.2,0-0.4-0.1-0.5
		c-0.1-0.2-0.2-0.3-0.4-0.3l-3.2-1c-0.3-0.1-0.3-0.2-0.2-0.4l1.1-2.4c0.1-0.2,0.3-0.3,0.6-0.2l2.8,0.8c0.5,0.1,0.9,0.4,1.2,0.7
		c0.4,0.3,0.6,0.7,0.9,1.1s0.4,0.8,0.4,1.3s0,0.9-0.1,1.4l-0.3,1c-0.1,0.5-0.4,0.9-0.7,1.2c-0.3,0.4-0.7,0.6-1,0.9
		c-0.4,0.2-0.8,0.4-1.3,0.4c-0.5,0.1-0.9,0-1.4-0.1l-9.8-2.9c-0.5-0.1-0.9-0.4-1.2-0.7c-0.4-0.3-0.6-0.7-0.9-1.1
		c-0.2-0.4-0.4-0.8-0.4-1.3c-0.1-0.5,0-0.9,0.1-1.4l0.3-1C469.3,315,469.5,314.6,469.8,314.2z"/>
	<path class="st4" d="M473.7,300.3l15.7,3.8c0.3,0.1,0.4,0.2,0.3,0.5l-0.6,2.4c-0.1,0.3-0.2,0.4-0.5,0.3l-6.2-1.5l-0.4,1.8l6.2,1.5
		c0.3,0.1,0.4,0.2,0.3,0.5l-0.6,2.4c-0.1,0.3-0.2,0.4-0.5,0.3l-15.7-3.8c-0.3-0.1-0.4-0.2-0.3-0.5l0.6-2.4c0.1-0.3,0.2-0.4,0.5-0.3
		l6.3,1.5l0.4-1.8l-6.3-1.5c-0.3-0.1-0.4-0.2-0.3-0.5l0.6-2.4C473.3,300.3,473.5,300.2,473.7,300.3z"/>
	<path class="st4" d="M491.9,291c0.3,0,0.4,0.1,0.3,0.4l-0.5,2.5c0,0.2-0.2,0.4-0.5,0.3l-2.8-0.3l-0.3,1.7l2.7,0.7
		c0.3,0.1,0.4,0.2,0.3,0.5l-0.5,2.5c0,0.3-0.2,0.3-0.4,0.3l-15.5-5c-0.3-0.1-0.4-0.3-0.3-0.5l0.7-3.7c0-0.3,0.2-0.4,0.5-0.4
		L491.9,291z M485.4,293.6l-6.2-0.6l0,0.2l6,1.7L485.4,293.6z"/>
	<path class="st4" d="M493,283.4c0.3,0,0.4,0.2,0.3,0.4l-0.3,2.5c0,0.3-0.2,0.4-0.4,0.3l-16-2.2c-0.3,0-0.4-0.2-0.3-0.4l0.3-2.5
		c0-0.3,0.2-0.4,0.4-0.3L493,283.4z"/>
	<path class="st4" d="M478.5,267.9l16,1.5c0.3,0,0.4,0.2,0.4,0.4l-0.2,1.8c0,0.1-0.1,0.2-0.1,0.3c-0.1,0.1-0.2,0.2-0.3,0.2l-7.6,2.3
		l7.3,0.7c0.3,0,0.4,0.2,0.4,0.4l-0.2,2.5c0,0.3-0.2,0.4-0.4,0.4l-16-1.5c-0.3,0-0.4-0.2-0.4-0.4l0.2-1.9c0-0.1,0.1-0.2,0.1-0.3
		c0.1-0.1,0.2-0.2,0.3-0.2l8.4-2.2l-8.1-0.8c-0.3,0-0.4-0.2-0.4-0.4l0.2-2.5C478.1,268,478.2,267.9,478.5,267.9z"/>
</g>
<g>
	<g>
		<g>
			<g>
				<path class="st2" d="M20.6,246.8c-0.1-0.2-0.3-0.3-0.6-0.3c-1.7,0-3.4,0-5.1,0c-0.4,0-0.7,0.2-0.9,0.5c-0.4,0.8-0.9,1.5-1.3,2.3
					c-0.2,0.3-0.4,0.7-0.5,1c0,0,0,0-0.1,0.1c0,0,0,0-0.1-0.1c-0.2-0.3-0.4-0.7-0.5-1c-0.4-0.8-0.9-1.5-1.3-2.3
					c-0.2-0.4-0.5-0.5-0.9-0.5c-1.7,0-3.4,0-5.1,0c-0.3,0-0.5,0.1-0.6,0.3c-0.1,0.2-0.1,0.5,0,0.7c0.2,0.3,0.4,0.7,0.6,1
					c0.5,0.9,1,1.8,1.6,2.7c0.5,0.9,1.1,1.9,1.7,2.9c0.5,0.9,1,1.7,1.5,2.6c0.1,0.2,0.3,0.3,0.6,0.3c0.3,0,0.5-0.1,0.6-0.4
					s0.3-0.5,0.4-0.7c0.4-0.8,0.9-1.5,1.3-2.3c0.1-0.2,0.2-0.3,0.3-0.5c0.1,0.2,0.2,0.4,0.3,0.5c0.4,0.8,0.9,1.5,1.3,2.3
					c0.1,0.2,0.3,0.5,0.4,0.7s0.3,0.4,0.6,0.4c0.3,0,0.5-0.1,0.6-0.3c0.5-0.9,1-1.7,1.5-2.6c0.5-0.9,1.1-1.9,1.7-2.9
					c0.5-0.9,1-1.8,1.6-2.7c0.2-0.3,0.4-0.7,0.6-1C20.7,247.3,20.7,247,20.6,246.8z M11.3,251.8c-0.5,0.9-1,1.7-1.5,2.6
					c-0.1,0.2-0.2,0.3-0.3,0.5c-1.4-2.4-2.8-4.8-4.1-7.2c0.1,0,0.1,0,0.2,0c1.1,0,2.3,0,3.4,0c0.1,0,0.2,0,0.3,0.1
					c0.6,1.1,1.2,2.1,1.8,3.2c0.1,0.2,0.2,0.3,0.3,0.5C11.3,251.7,11.3,251.8,11.3,251.8z M14.7,255c-0.1-0.2-0.2-0.4-0.3-0.5
					c-0.5-0.9-1-1.7-1.5-2.6c0-0.1,0-0.2,0-0.2c0.1-0.2,0.2-0.3,0.3-0.5c0.6-1.1,1.2-2.1,1.8-3.2c0.1-0.1,0.1-0.1,0.3-0.1
					c1.1,0,2.3,0,3.4,0c0.1,0,0.1,0,0.2,0C17.5,250.2,16.1,252.6,14.7,255z"/>
			</g>
		</g>
	</g>
</g>
<g>
	<g>
		<g>
			<g>
				<path class="st2" d="M495.5,246.5c-0.1-0.2-0.3-0.3-0.6-0.3c-1.7,0-3.4,0-5.1,0c-0.4,0-0.7,0.2-0.9,0.5
					c-0.4,0.8-0.9,1.5-1.3,2.3c-0.2,0.3-0.4,0.7-0.5,1c0,0,0,0-0.1,0.1c0,0,0,0-0.1-0.1c-0.2-0.3-0.4-0.7-0.5-1
					c-0.4-0.8-0.9-1.5-1.3-2.3c-0.2-0.4-0.5-0.5-0.9-0.5c-1.7,0-3.4,0-5.1,0c-0.3,0-0.5,0.1-0.6,0.3c-0.1,0.2-0.1,0.5,0,0.7
					c0.2,0.3,0.4,0.7,0.6,1c0.5,0.9,1,1.8,1.6,2.7c0.5,0.9,1.1,1.9,1.7,2.9c0.5,0.9,1,1.7,1.5,2.6c0.1,0.2,0.3,0.3,0.6,0.3
					c0.3,0,0.5-0.1,0.6-0.4s0.3-0.5,0.4-0.7c0.4-0.8,0.9-1.5,1.3-2.3c0.1-0.2,0.2-0.3,0.3-0.5c0.1,0.2,0.2,0.4,0.3,0.5
					c0.4,0.8,0.9,1.5,1.3,2.3c0.1,0.2,0.3,0.5,0.4,0.7s0.3,0.4,0.6,0.4s0.5-0.1,0.6-0.3c0.5-0.9,1-1.7,1.5-2.6
					c0.5-0.9,1.1-1.9,1.7-2.9c0.5-0.9,1-1.8,1.6-2.7c0.2-0.3,0.4-0.7,0.6-1C495.6,246.9,495.6,246.7,495.5,246.5z M486.2,251.5
					c-0.5,0.9-1,1.7-1.5,2.6c-0.1,0.2-0.2,0.3-0.3,0.5c-1.4-2.4-2.8-4.8-4.1-7.2c0.1,0,0.1,0,0.2,0c1.1,0,2.3,0,3.4,0
					c0.1,0,0.2,0,0.3,0.1c0.6,1.1,1.2,2.1,1.8,3.2c0.1,0.2,0.2,0.3,0.3,0.5C486.2,251.3,486.2,251.4,486.2,251.5z M489.6,254.6
					c-0.1-0.2-0.2-0.4-0.3-0.5c-0.5-0.9-1-1.7-1.5-2.6c0-0.1,0-0.2,0-0.2c0.1-0.2,0.2-0.3,0.3-0.5c0.6-1.1,1.2-2.1,1.8-3.2
					c0.1-0.1,0.1-0.1,0.3-0.1c1.1,0,2.3,0,3.4,0c0.1,0,0.1,0,0.2,0C492.3,249.8,491,252.2,489.6,254.6z"/>
			</g>
		</g>
	</g>
</g>
</svg>
