<?xml version="1.0" encoding="utf-8"?>
<!-- Generator: Adobe Illustrator 22.1.0, SVG Export Plug-In . SVG Version: 6.00 Build 0)  -->
<svg version="1.1" id="Layer_1" xmlns="http://www.w3.org/2000/svg" xmlns:xlink="http://www.w3.org/1999/xlink" x="0px" y="0px"
	 viewBox="0 0 148.6 52.6" style="enable-background:new 0 0 148.6 52.6;" xml:space="preserve">
<style type="text/css">
	.st0{fill:#FFFFFF;}
	.st1{fill:#232323;}
	.st2{fill:#EF1B1B;}
</style>
<g>
	<path class="st0" d="M43.3,21.1c0,3.9-3.1,7-7,7H15.9c-3.9,0-7-3.1-7-7s3.1-7,7-7h20.4C40.1,14.1,43.3,17.3,43.3,21.1z"/>
	<g>
		<circle class="st1" cx="19" cy="20.6" r="3"/>
		<circle class="st1" cx="33.2" cy="20.6" r="3"/>
		<g>
			<path class="st2" d="M43.6,12.9c-0.2-0.3-0.4-0.5-0.6-0.7c-4.1-4.7-10.2-7.7-17-7.7s-12.8,3-17,7.7c-0.2,0.2-0.4,0.5-0.6,0.7
				c-3.1,3.8-4.9,8.7-4.9,14c0,12.4,10.1,22.5,22.5,22.5S48.5,39.4,48.5,27C48.5,21.7,46.7,16.8,43.6,12.9z M15.9,14.1h20.4
				c3.9,0,7,3.1,7,7s-3.1,7-7,7H15.9c-3.9,0-7-3.1-7-7S12,14.1,15.9,14.1z"/>
			<path class="st1" d="M26.1,50.1C13.3,50.1,2.9,39.7,2.9,27S13.3,3.8,26.1,3.8S49.2,14.2,49.2,27S38.8,50.1,26.1,50.1z M26.1,5.2
				C14.1,5.2,4.3,15,4.3,27s9.8,21.8,21.8,21.8S47.8,39,47.8,27S38.1,5.2,26.1,5.2z M36.3,28.9H15.9c-4.3,0-7.7-3.5-7.7-7.7
				s3.5-7.7,7.7-7.7h20.4c4.3,0,7.7,3.5,7.7,7.7S40.5,28.9,36.3,28.9z M15.9,14.8c-3.5,0-6.3,2.8-6.3,6.3s2.8,6.3,6.3,6.3h20.4
				c3.5,0,6.3-2.8,6.3-6.3s-2.8-6.3-6.3-6.3L15.9,14.8z"/>
		</g>
	</g>
</g>
<g>
	<path class="st1" d="M68.6,26.5c0.5,0.5,0.8,1,1,1.6c0.2,0.6,0.3,1.3,0.3,2v7.2c0,0.8-0.2,1.6-0.5,2.4c-0.3,0.7-0.8,1.4-1.3,1.9
		c-0.6,0.6-1.2,1-1.9,1.3c-0.7,0.3-1.5,0.5-2.4,0.5h-7.3c-0.5,0-0.7-0.2-0.7-0.7V10.1c0-0.5,0.2-0.7,0.7-0.7h7.3
		c0.8,0,1.6,0.2,2.4,0.5c0.7,0.3,1.4,0.8,1.9,1.3c0.6,0.6,1,1.2,1.3,1.9c0.3,0.7,0.5,1.5,0.5,2.4v4.9c0,1.5-0.5,2.7-1.4,3.7
		c-0.5,0.5-1.1,0.9-1.8,1.3C67.5,25.6,68.1,26,68.6,26.5z M64.2,15.8c0-0.3-0.1-0.6-0.3-0.8c-0.2-0.2-0.5-0.3-0.8-0.3h-1.6v8.3h1.6
		c0.3,0,0.6-0.1,0.8-0.3c0.2-0.2,0.3-0.5,0.3-0.8V15.8z M64.2,29.3c0-0.3-0.1-0.6-0.3-0.8c-0.2-0.2-0.5-0.3-0.8-0.3h-1.6v10.1h1.6
		c0.3,0,0.6-0.1,0.8-0.3c0.2-0.2,0.3-0.5,0.3-0.8V29.3z"/>
	<path class="st1" d="M83.8,38.4v4.3c0,0.5-0.2,0.7-0.7,0.7H72.5c-0.5,0-0.7-0.2-0.7-0.7V10.1c0-0.5,0.2-0.7,0.7-0.7h10.5
		c0.5,0,0.7,0.2,0.7,0.7v4.3c0,0.5-0.2,0.7-0.7,0.7h-5.5v7h4.8c0.5,0,0.7,0.2,0.7,0.7v4.3c0,0.5-0.2,0.7-0.7,0.7h-4.8v10h5.5
		C83.5,37.7,83.8,38,83.8,38.4z"/>
	<path class="st1" d="M99.1,10.1v4.3c0,0.5-0.2,0.7-0.7,0.7H95v27.7c0,0.5-0.2,0.7-0.7,0.7H90c-0.2,0-0.3-0.1-0.5-0.2
		c-0.1-0.1-0.2-0.3-0.2-0.5V15.1h-3.4c-0.5,0-0.7-0.2-0.7-0.7v-4.3c0-0.5,0.2-0.7,0.7-0.7h12.5C98.9,9.4,99.1,9.6,99.1,10.1z"/>
</g>
<g>
	<path class="st1" d="M106.7,20.6v2c0,0.2-0.1,0.3-0.3,0.3h-3.1h0h0h-2c-0.2,0-0.3-0.1-0.3-0.3v-13c0-0.2,0.1-0.3,0.3-0.3h2
		c0.2,0,0.3,0.1,0.3,0.3v10.7h2.8C106.6,20.3,106.7,20.4,106.7,20.6z"/>
	<path class="st1" d="M111.7,22.6c0,0.2-0.1,0.3-0.3,0.3h-2c-0.2,0-0.3-0.1-0.3-0.3v-13c0-0.2,0.1-0.3,0.3-0.3h2
		c0.2,0,0.3,0.1,0.3,0.3V22.6z"/>
	<path class="st1" d="M122.1,9.4c0,0.1,0,0.1,0,0.2l-3.1,5.8l3,7.2c0,0.1,0,0.1,0,0.2c0,0.1-0.1,0.1-0.2,0.1h-2.3
		c-0.1,0-0.2,0-0.3-0.1c-0.1-0.1-0.1-0.1-0.2-0.2l-1.7-3.8l-0.4,0.7v3c0,0.2-0.1,0.3-0.3,0.3h-2c-0.2,0-0.3-0.1-0.3-0.3v-13
		c0-0.2,0.1-0.3,0.3-0.3h2c0.2,0,0.3,0.1,0.3,0.3v4l2.1-4c0.1-0.2,0.2-0.3,0.4-0.3h2.3C122,9.3,122.1,9.3,122.1,9.4z"/>
	<path class="st1" d="M130,20.6v2c0,0.2-0.1,0.3-0.3,0.3h-4.9c-0.2,0-0.3-0.1-0.3-0.3v-13c0-0.2,0.1-0.3,0.3-0.3h4.9
		c0.2,0,0.3,0.1,0.3,0.3v2c0,0.2-0.1,0.3-0.3,0.3h-2.6v2.6h2.3c0.2,0,0.3,0.1,0.3,0.3v2c0,0.2-0.1,0.3-0.3,0.3h-2.3v3.1h2.6
		C129.9,20.3,130,20.4,130,20.6z"/>
	<path class="st1" d="M143.1,22.6c0,0.2-0.1,0.3-0.3,0.3h-2.1c-0.2,0-0.3-0.1-0.3-0.3l-0.2-2.2h-1.4l-0.2,2.2c0,0.2-0.1,0.3-0.3,0.3
		h-2.1c-0.2,0-0.3-0.1-0.3-0.3l1.7-13c0-0.2,0.2-0.3,0.4-0.3h3c0.2,0,0.3,0.1,0.4,0.3L143.1,22.6z M140,17.9l-0.4-5h-0.2l-0.4,5H140
		z"/>
</g>
<g>
	<path class="st2" d="M109.8,24.6v18.5c0,0.3-0.1,0.4-0.4,0.4h-1.8c-0.1,0-0.2,0-0.3-0.1c-0.1-0.1-0.2-0.2-0.2-0.2l-2.9-9.1v9.1
		c0,0.3-0.1,0.4-0.4,0.4h-2.5c-0.3,0-0.4-0.1-0.4-0.4V24.6c0-0.3,0.1-0.4,0.4-0.4h1.8c0.1,0,0.2,0,0.3,0.1c0.1,0.1,0.2,0.2,0.2,0.2
		l2.9,8.9v-8.8c0-0.3,0.1-0.4,0.4-0.4h2.5C109.7,24.2,109.8,24.3,109.8,24.6z"/>
	<path class="st2" d="M114.6,43.1c0,0.3-0.1,0.4-0.4,0.4h-2.5c-0.3,0-0.4-0.1-0.4-0.4V24.6c0-0.3,0.1-0.4,0.4-0.4h2.5
		c0.3,0,0.4,0.1,0.4,0.4V43.1z"/>
	<path class="st2" d="M125,24.6v18.5c0,0.3-0.1,0.4-0.4,0.4h-1.8c-0.1,0-0.2,0-0.3-0.1c-0.1-0.1-0.2-0.2-0.2-0.2l-2.9-9.1v9.1
		c0,0.3-0.1,0.4-0.4,0.4h-2.5c-0.3,0-0.4-0.1-0.4-0.4V24.6c0-0.3,0.1-0.4,0.4-0.4h1.8c0.1,0,0.2,0,0.3,0.1c0.1,0.1,0.2,0.2,0.2,0.2
		l2.9,8.9v-8.8c0-0.3,0.1-0.4,0.4-0.4h2.5C124.8,24.2,125,24.3,125,24.6z"/>
	<path class="st2" d="M133.6,24.2c0.3,0,0.4,0.1,0.4,0.4v15.6c0,0.5-0.1,0.9-0.3,1.4s-0.4,0.8-0.7,1.1c-0.3,0.3-0.7,0.6-1.1,0.7
		c-0.4,0.2-0.9,0.3-1.4,0.3h-1c-0.5,0-0.9-0.1-1.4-0.3c-0.4-0.2-0.8-0.4-1.1-0.7c-0.3-0.3-0.6-0.7-0.7-1.1s-0.3-0.9-0.3-1.4v-3.5
		c0-0.3,0.1-0.4,0.4-0.5l2.5-0.7c0.2-0.1,0.4,0,0.4,0.3v4.3c0,0.2,0.1,0.3,0.2,0.5c0.1,0.1,0.3,0.2,0.5,0.2h0.2
		c0.2,0,0.3-0.1,0.5-0.2c0.1-0.1,0.2-0.3,0.2-0.5V24.6c0-0.3,0.1-0.4,0.4-0.4H133.6z"/>
	<path class="st2" d="M143.4,43.1c0,0.3-0.1,0.4-0.3,0.4h-2.5c-0.2,0-0.4-0.1-0.4-0.4l-0.2-3h-1.7l-0.2,3c0,0.3-0.2,0.4-0.4,0.4H135
		c-0.3,0-0.4-0.1-0.3-0.4l2.1-18.5c0-0.3,0.2-0.4,0.4-0.4h3.6c0.3,0,0.4,0.1,0.4,0.4L143.4,43.1z M139.7,37l-0.5-7.5h-0.2l-0.5,7.5
		H139.7z"/>
</g>
</svg>
