<?xml version="1.0" encoding="utf-8"?>
<!-- Generator: Adobe Illustrator 22.1.0, SVG Export Plug-In . SVG Version: 6.00 Build 0)  -->
<svg version="1.1" id="Layer_1" xmlns="http://www.w3.org/2000/svg" xmlns:xlink="http://www.w3.org/1999/xlink" x="0px" y="0px"
	 viewBox="0 0 500 500" style="enable-background:new 0 0 500 500;" xml:space="preserve">
<style type="text/css">
	.st0{fill:#FFFFFF;}
	.st1{fill:#232323;}
	.st2{fill:#EF1B1B;}
	.st3{fill:#C11E1E;}
</style>
<g>
	<path class="st0" d="M433.4,188.4c0,41.4-32.9,74.2-74.2,74.2H142.9c-41.4,0-74.2-32.9-74.2-74.2s32.9-74.2,74.2-74.2h216.3
		C399.5,114.2,433.4,148.1,433.4,188.4z"/>
	<g>
		<circle class="st1" cx="175.8" cy="183.1" r="31.8"/>
		<circle class="st1" cx="326.4" cy="183.1" r="31.8"/>
		<g>
			<path class="st2" d="M436.6,101.5c-2.1-3.2-4.2-5.3-6.4-7.4C386.8,44.2,322.1,12.4,250,12.4S114.3,44.2,69.8,94.1
				c-2.1,2.1-4.2,5.3-6.4,7.4c-32.9,40.3-52,92.2-52,148.4c0,131.5,107.1,238.6,238.6,238.6s238.6-106,238.6-237.5
				C488.6,194.8,469.5,142.8,436.6,101.5z M142.9,114.2h216.3c41.4,0,74.2,32.9,74.2,74.2s-32.9,74.2-74.2,74.2H142.9
				c-41.4,0-74.2-32.9-74.2-74.2S101.6,114.2,142.9,114.2z"/>
			<path class="st1" d="M251.1,495.9c-135.7,0-246-110.3-246-244.9S115.4,5,251.1,5S496,115.3,496,251S385.7,495.9,251.1,495.9z
				 M251.1,19.8C123.8,19.8,19.9,123.7,19.9,251s103.9,231.1,231.1,231.1S481.2,378.2,481.2,251S378.3,19.8,251.1,19.8z
				 M359.2,271.1H142.9c-45.6,0-81.6-37.1-81.6-81.6s37.1-81.6,81.6-81.6h216.3c45.6,0,81.6,37.1,81.6,81.6S403.8,271.1,359.2,271.1
				z M142.9,121.6c-37.1,0-66.8,29.7-66.8,66.8s29.7,66.8,66.8,66.8h216.3c37.1,0,66.8-29.7,66.8-66.8s-29.7-66.8-66.8-66.8
				L142.9,121.6z"/>
		</g>
	</g>
</g>
<g>
	<g>
		<path class="st3" d="M203.7,409.8c-9.9,16.8-21.4,32.9-34.7,48c-0.5,0.7-1.5,0.7-2.9,0.2c-4.5-1.7-8.9-3.6-13.3-5.6
			c-1.4-0.6-2-1.4-1.8-2.1c1.6-7,3.3-14,5.1-20.9c0,0-0.1,0-0.1-0.1c-4.9,5.4-10,10.6-15.3,15.8c-0.6,0.6-1.6,0.5-2.9-0.2
			c-4.2-2.3-8.3-4.8-12.3-7.3c-1.3-0.8-1.8-1.6-1.5-2.4c5.8-18.9,12.8-37.2,20.5-55c0.4-0.7,1-0.7,1.9,0c3.5,2.7,7.1,5.2,10.7,7.5
			c0.9,0.6,1.2,1.2,0.9,2c-4.6,10.6-9.1,21.3-13.4,32.1c0.2,0.1,0.3,0.2,0.5,0.3c7.6-8.9,14.8-18,21.6-27.2c0.5-0.6,1.2-0.7,2.2-0.2
			c2.9,1.5,5.8,3,8.8,4.4c0.9,0.4,1.3,1,1.2,1.8c-3.6,10.9-7,21.9-10.3,32.9c0.2,0.1,0.4,0.2,0.5,0.2c6.8-9.6,13.2-19.3,19.1-29.3
			c0.4-0.7,1.1-0.8,2.1-0.5c4.1,1.5,8.2,2.9,12.4,4.1C203.7,408.6,204.1,409.1,203.7,409.8z"/>
		<path class="st3" d="M214.8,469.8c-0.1,0.8-1,1-2.5,0.8c-4.8-0.8-9.6-1.7-14.3-2.8c-1.5-0.3-2.1-0.9-1.9-1.7
			c4.9-18.2,9.6-36.4,14.2-54.6c0.2-0.8,0.8-1,1.9-0.8c3.5,0.8,7,1.5,10.5,2.1c1.1,0.2,1.6,0.7,1.5,1.4
			C221.2,432.8,218.1,451.3,214.8,469.8z"/>
		<path class="st3" d="M273.8,414.9c2.5,18.6,5.1,37.2,7.9,55.8c0.1,0.8-0.6,1.3-2.1,1.4c-3.5,0.4-7,0.7-10.5,1
			c-0.7,0-1.3,0-1.9-0.2c-0.6-0.2-1-0.4-1.3-0.7c-6.4-8.9-12.1-18-17-27.3c-0.1,9.2-0.2,18.4-0.3,27.6c0,0.8-0.8,1.2-2.3,1.1
			c-4.9-0.1-9.8-0.4-14.6-0.8c-1.5-0.1-2.3-0.6-2.2-1.4c1.9-18.7,3.8-37.3,5.6-56c0.1-0.8,0.7-1.1,1.8-1c2.6,0.2,5.3,0.4,7.9,0.5
			c0.5,0,0.9,0.1,1.4,0.4c0.4,0.2,0.7,0.5,0.9,0.8c4,9.1,8.6,18,14,26.7c-0.5-8.9-0.9-17.8-1.4-26.8c0-0.8,0.5-1.2,1.6-1.3
			c3.6-0.2,7.1-0.5,10.7-0.9C273.1,413.8,273.7,414.1,273.8,414.9z"/>
		<path class="st3" d="M314,403.6c1-0.4,1.7-0.2,2,0.5c6,14.7,12.2,29.3,18.7,43.9c0.6,1.3,0.7,2.8,0.2,4.4
			c-0.5,1.6-1.4,3.1-2.7,4.6c-1.4,1.5-3.1,2.9-5.3,4.3c-2.2,1.3-4.6,2.4-7.4,3.2c-2,0.6-4,1.2-6,1.7c-2.8,0.7-5.4,1.1-8,1.1
			c-2.6,0-4.9-0.2-6.9-0.8c-2-0.6-3.7-1.4-5-2.5c-1.3-1.1-2.1-2.3-2.4-3.7c-0.7-3.5-1.4-7-2.1-10.5c-0.2-0.8,0.4-1.4,1.6-1.8
			c4.3-1.5,8.4-3.1,12.5-4.8c1.2-0.5,1.8-0.4,2.1,0.3c1.2,4.1,2.4,8.3,3.6,12.4c0.2,0.5,0.6,0.9,1.5,1.1c0.8,0.2,1.7,0.1,2.8-0.1
			c0.4-0.1,0.8-0.2,1.2-0.3c1-0.3,1.8-0.7,2.4-1.3c0.6-0.6,0.8-1.1,0.6-1.7c-5.1-14.9-10-29.9-14.8-44.9c-0.2-0.7,0.2-1.3,1.3-1.6
			C307.3,406.1,310.7,404.9,314,403.6z"/>
		<path class="st3" d="M391.2,426.2c0.7,0.5,0.4,1.2-0.8,2.1c-4,3-8,5.8-12.2,8.5c-1.2,0.8-2.1,0.9-2.7,0.3
			c-2.1-2.3-4.2-4.6-6.3-6.8c-2.7,1.7-5.5,3.3-8.3,4.9c1.2,2.8,2.5,5.6,3.7,8.4c0.2,0.8-0.3,1.5-1.5,2.2c-4.3,2.4-8.8,4.6-13.3,6.6
			c-1.4,0.6-2.2,0.5-2.3-0.2c-4.8-18.6-10.3-36.9-16.4-54.9c-0.2-0.8,0.2-1.4,1.2-1.9c4.7-2.5,9.3-5.2,13.8-8.1
			c0.9-0.6,1.7-0.7,2.3-0.1C361.5,401,375.7,414.1,391.2,426.2z M362.9,423.1c-5-5.9-9.9-11.8-14.6-17.9c-0.3,0.2-0.6,0.4-0.9,0.5
			c3.2,6.9,6.5,13.8,9.7,20.8C359,425.4,360.9,424.3,362.9,423.1z"/>
	</g>
</g>
</svg>
