<?xml version="1.0" encoding="utf-8"?>
<!-- Generator: Adobe Illustrator 22.1.0, SVG Export Plug-In . SVG Version: 6.00 Build 0)  -->
<svg version="1.1" id="Layer_1" xmlns="http://www.w3.org/2000/svg" xmlns:xlink="http://www.w3.org/1999/xlink" x="0px" y="0px"
	 viewBox="0 0 500 500" style="enable-background:new 0 0 500 500;" xml:space="preserve">
<style type="text/css">
	.st0{fill:#FFFFFF;}
	.st1{fill:#232323;}
	.st2{fill:#EF1B1B;}
	.st3{fill:#B20F0F;}
	.st4{font-family:'ChangaOne';}
	.st5{font-size:64.1646px;}
</style>
<g>
	<path class="st0" d="M432.4,188.4c0,41.4-32.9,74.2-74.2,74.2H141.9c-41.4,0-74.2-32.9-74.2-74.2s32.9-74.2,74.2-74.2h216.3
		C398.5,114.2,432.4,148.1,432.4,188.4z"/>
	<g>
		<circle class="st1" cx="174.8" cy="183.1" r="31.8"/>
		<circle class="st1" cx="325.4" cy="183.1" r="31.8"/>
		<g>
			<path class="st2" d="M435.6,101.5c-2.1-3.2-4.2-5.3-6.4-7.4C385.8,44.2,321.1,12.4,249,12.4S113.3,44.2,68.8,94.1
				c-2.1,2.1-4.2,5.3-6.4,7.4c-32.9,40.3-52,92.2-52,148.4c0,131.5,107.1,238.6,238.6,238.6s238.6-106,238.6-237.5
				C487.6,194.8,468.5,142.8,435.6,101.5z M141.9,114.2h216.3c41.4,0,74.2,32.9,74.2,74.2s-32.9,74.2-74.2,74.2H141.9
				c-41.4,0-74.2-32.9-74.2-74.2S100.6,114.2,141.9,114.2z"/>
			<path class="st1" d="M250.1,495.9c-135.7,0-246-110.3-246-244.9S114.4,5,250.1,5S495,115.3,495,251S384.7,495.9,250.1,495.9z
				 M250.1,19.8C122.8,19.8,18.9,123.7,18.9,251s103.9,231.1,231.1,231.1S480.2,378.2,480.2,251S377.3,19.8,250.1,19.8z
				 M358.2,271.1H141.9c-45.6,0-81.6-37.1-81.6-81.6s37.1-81.6,81.6-81.6h216.3c45.6,0,81.6,37.1,81.6,81.6S402.8,271.1,358.2,271.1
				z M141.9,121.6c-37.1,0-66.8,29.7-66.8,66.8s29.7,66.8,66.8,66.8h216.3c37.1,0,66.8-29.7,66.8-66.8s-29.7-66.8-66.8-66.8
				L141.9,121.6z"/>
		</g>
	</g>
</g>
<text transform="matrix(0.9928 0 0 1 160.9995 93.5811)" class="st3 st4 st5">WINJA</text>
</svg>
